M48
INCH,TZ
T1C0.039
T2C0.047
T3C0.049
T4C0.051
T5C0.055
T6C0.059
T7C0.079
T8C0.130
T9C0.157
T10C0.217
%
G90
G05
T1
X60630Y-44488
X60630Y-53150
T2
X60630Y-41339
X60630Y-42913
X60630Y-54724
X60630Y-56299
T3
X58268Y-31890
X60630Y-31890
T4
X24803Y-36614
X24803Y-40551
X24803Y-48425
X24803Y-52362
X80315Y-36614
X80315Y-40551
X80315Y-48425
X80315Y-52362
T5
X21260Y-14173
X21260Y-16173
X21260Y-18173
X21260Y-20173
X21260Y-22173
X21260Y-24173
X23260Y-14173
X23260Y-16173
X23260Y-18173
X23260Y-20173
X23260Y-22173
X23260Y-24173
X57480Y-14173
X57480Y-16173
X57480Y-18173
X57480Y-20173
X59480Y-14173
X59480Y-16173
X59480Y-18173
X59480Y-20173
T6
X24803Y-33465
X24803Y-55512
X37402Y-44094
X37402Y-47244
X40945Y-28740
X43307Y-37008
X60630Y-38976
X60630Y-58661
X75984Y-14173
X75984Y-29134
X80315Y-33465
X80315Y-55512
X84646Y-14173
X84646Y-29134
T7
X24803Y-30315
X24803Y-58661
X80315Y-30315
X80315Y-58661
T8
X19291Y-59055
X34252Y-13386
X51575Y-13386
X51575Y-59055
X55512Y-59055
X70472Y-13386
X87795Y-13386
X87795Y-59055
T9
X33071Y-33071
X38583Y-27953
X38976Y-50000
X38976Y-52756
X41732Y-12598
X41732Y-20079
X44882Y-27953
X44882Y-50000
X44882Y-52756
X50394Y-33465
X58268Y-22441
X58268Y-29528
X60630Y-22441
X60630Y-29528
T10
X34252Y-36220
X70472Y-36220
T0
M30
