G04 #@! TF.FileFunction,Copper,L2,Bot,Signal*
%FSLAX46Y46*%
G04 Gerber Fmt 4.6, Leading zero omitted, Abs format (unit mm)*
G04 Created by KiCad (PCBNEW 4.0.0-stable) date Tuesday, December 22, 2015 'PMt' 11:05:09 PM*
%MOMM*%
G01*
G04 APERTURE LIST*
%ADD10C,0.100000*%
%ADD11C,3.000000*%
%ADD12C,2.500000*%
%ADD13C,2.000000*%
%ADD14C,4.000000*%
%ADD15R,3.000000X3.000000*%
%ADD16C,6.200000*%
%ADD17C,6.000000*%
%ADD18C,4.000000*%
%ADD19C,0.254000*%
G04 APERTURE END LIST*
D10*
D11*
X154000000Y-149000000D03*
X154000000Y-99000000D03*
D12*
X154000000Y-143000000D03*
X154000000Y-139000000D03*
D13*
X154000000Y-135000000D03*
D12*
X154000000Y-105000000D03*
D13*
X154000000Y-113000000D03*
D12*
X154000000Y-109000000D03*
D14*
X114000000Y-127000000D03*
X114000000Y-134000000D03*
D11*
X95000000Y-120000000D03*
X95000000Y-112000000D03*
D14*
X99000000Y-127000000D03*
X99000000Y-134000000D03*
D15*
X146000000Y-36000000D03*
D11*
X146000000Y-41080000D03*
X146000000Y-46160000D03*
X146000000Y-51240000D03*
D15*
X151080000Y-36000000D03*
D11*
X151080000Y-41080000D03*
X151080000Y-46160000D03*
X151080000Y-51240000D03*
D15*
X54000000Y-36000000D03*
D11*
X54000000Y-41080000D03*
X54000000Y-46160000D03*
X54000000Y-51240000D03*
X54000000Y-56320000D03*
X54000000Y-61400000D03*
D15*
X59080000Y-36000000D03*
D11*
X59080000Y-41080000D03*
X59080000Y-46160000D03*
X59080000Y-51240000D03*
X59080000Y-56320000D03*
X59080000Y-61400000D03*
D16*
X179000000Y-91500000D03*
D14*
X87000000Y-34000000D03*
D17*
X87000000Y-91500000D03*
D14*
X179000000Y-34000000D03*
X141000000Y-149000000D03*
X223000000Y-149000000D03*
X131000000Y-34000000D03*
X49000000Y-149000000D03*
X223000000Y-34000000D03*
X131000000Y-149000000D03*
X154000000Y-75000000D03*
X148000000Y-57000000D03*
X148000000Y-75000000D03*
D12*
X148000000Y-81000000D03*
X154000000Y-81000000D03*
D14*
X154000000Y-57000000D03*
X114000000Y-72000000D03*
X128000000Y-86000000D03*
X84000000Y-86000000D03*
X98000000Y-72000000D03*
X106000000Y-33000000D03*
D11*
X103000000Y-74000000D03*
X110000000Y-95000000D03*
D14*
X106000000Y-52000000D03*
D11*
X215000000Y-36000000D03*
X215000000Y-76000000D03*
X193000000Y-76000000D03*
X193000000Y-36000000D03*
D14*
X204000000Y-149000000D03*
X204000000Y-77000000D03*
D12*
X204000000Y-133000000D03*
D11*
X204000000Y-141000000D03*
D12*
X204000000Y-93000000D03*
D11*
X204000000Y-85000000D03*
D12*
X204000000Y-123000000D03*
X204000000Y-103000000D03*
D14*
X63000000Y-149000000D03*
X63000000Y-77000000D03*
D12*
X63000000Y-133000000D03*
D11*
X63000000Y-141000000D03*
D12*
X63000000Y-93000000D03*
D11*
X63000000Y-85000000D03*
D12*
X63000000Y-123000000D03*
X63000000Y-103000000D03*
D18*
X154000000Y-109000000D02*
X154000000Y-113000000D01*
X154000000Y-105000000D02*
X154000000Y-109000000D01*
X154000000Y-99000000D02*
X154000000Y-105000000D01*
X193000000Y-76000000D02*
X177000000Y-76000000D01*
X177000000Y-76000000D02*
X154000000Y-99000000D01*
X204000000Y-93000000D02*
X204000000Y-103000000D01*
X204000000Y-85000000D02*
X204000000Y-93000000D01*
X204000000Y-77000000D02*
X204000000Y-85000000D01*
X204000000Y-77000000D02*
X214000000Y-77000000D01*
X214000000Y-77000000D02*
X215000000Y-76000000D01*
X95000000Y-120000000D02*
X66000000Y-120000000D01*
X66000000Y-120000000D02*
X63000000Y-123000000D01*
X103000000Y-74000000D02*
X103000000Y-112000000D01*
X103000000Y-112000000D02*
X95000000Y-120000000D01*
X63000000Y-133000000D02*
X63000000Y-123000000D01*
X63000000Y-141000000D02*
X63000000Y-133000000D01*
X63000000Y-149000000D02*
X63000000Y-141000000D01*
X151080000Y-46160000D02*
X204840000Y-46160000D01*
X204840000Y-46160000D02*
X215000000Y-36000000D01*
X146000000Y-46160000D02*
X151080000Y-46160000D01*
X151080000Y-36000000D02*
X173599998Y-36000000D01*
X191500001Y-37499999D02*
X193000000Y-36000000D01*
X173599998Y-36000000D02*
X176599999Y-39000001D01*
X176599999Y-39000001D02*
X189999999Y-39000001D01*
X189999999Y-39000001D02*
X191500001Y-37499999D01*
X146000000Y-36000000D02*
X151080000Y-36000000D01*
D19*
G36*
X68098497Y-32347993D02*
X69029758Y-32970242D01*
X69652007Y-33901503D01*
X69873000Y-35012509D01*
X69873000Y-103987491D01*
X69652007Y-105098497D01*
X69029758Y-106029758D01*
X68098497Y-106652007D01*
X66987491Y-106873000D01*
X51012509Y-106873000D01*
X49901503Y-106652007D01*
X48970242Y-106029758D01*
X48347993Y-105098497D01*
X48195790Y-104333320D01*
X61846285Y-104333320D01*
X61975533Y-104626123D01*
X62675806Y-104894388D01*
X63425435Y-104874250D01*
X64024467Y-104626123D01*
X64153715Y-104333320D01*
X63000000Y-103179605D01*
X61846285Y-104333320D01*
X48195790Y-104333320D01*
X48127000Y-103987491D01*
X48127000Y-102675806D01*
X61105612Y-102675806D01*
X61125750Y-103425435D01*
X61373877Y-104024467D01*
X61666680Y-104153715D01*
X62820395Y-103000000D01*
X63179605Y-103000000D01*
X64333320Y-104153715D01*
X64626123Y-104024467D01*
X64894388Y-103324194D01*
X64874250Y-102574565D01*
X64626123Y-101975533D01*
X64333320Y-101846285D01*
X63179605Y-103000000D01*
X62820395Y-103000000D01*
X61666680Y-101846285D01*
X61373877Y-101975533D01*
X61105612Y-102675806D01*
X48127000Y-102675806D01*
X48127000Y-101666680D01*
X61846285Y-101666680D01*
X63000000Y-102820395D01*
X64153715Y-101666680D01*
X64024467Y-101373877D01*
X63324194Y-101105612D01*
X62574565Y-101125750D01*
X61975533Y-101373877D01*
X61846285Y-101666680D01*
X48127000Y-101666680D01*
X48127000Y-94333320D01*
X61846285Y-94333320D01*
X61975533Y-94626123D01*
X62675806Y-94894388D01*
X63425435Y-94874250D01*
X64024467Y-94626123D01*
X64153715Y-94333320D01*
X63000000Y-93179605D01*
X61846285Y-94333320D01*
X48127000Y-94333320D01*
X48127000Y-92675806D01*
X61105612Y-92675806D01*
X61125750Y-93425435D01*
X61373877Y-94024467D01*
X61666680Y-94153715D01*
X62820395Y-93000000D01*
X63179605Y-93000000D01*
X64333320Y-94153715D01*
X64626123Y-94024467D01*
X64894388Y-93324194D01*
X64874250Y-92574565D01*
X64626123Y-91975533D01*
X64333320Y-91846285D01*
X63179605Y-93000000D01*
X62820395Y-93000000D01*
X61666680Y-91846285D01*
X61373877Y-91975533D01*
X61105612Y-92675806D01*
X48127000Y-92675806D01*
X48127000Y-91666680D01*
X61846285Y-91666680D01*
X63000000Y-92820395D01*
X64153715Y-91666680D01*
X64024467Y-91373877D01*
X63324194Y-91105612D01*
X62574565Y-91125750D01*
X61975533Y-91373877D01*
X61846285Y-91666680D01*
X48127000Y-91666680D01*
X48127000Y-86513970D01*
X61665635Y-86513970D01*
X61825418Y-86832739D01*
X62616187Y-87142723D01*
X63465387Y-87126497D01*
X64174582Y-86832739D01*
X64334365Y-86513970D01*
X63000000Y-85179605D01*
X61665635Y-86513970D01*
X48127000Y-86513970D01*
X48127000Y-84616187D01*
X60857277Y-84616187D01*
X60873503Y-85465387D01*
X61167261Y-86174582D01*
X61486030Y-86334365D01*
X62820395Y-85000000D01*
X63179605Y-85000000D01*
X64513970Y-86334365D01*
X64832739Y-86174582D01*
X65142723Y-85383813D01*
X65126497Y-84534613D01*
X64832739Y-83825418D01*
X64513970Y-83665635D01*
X63179605Y-85000000D01*
X62820395Y-85000000D01*
X61486030Y-83665635D01*
X61167261Y-83825418D01*
X60857277Y-84616187D01*
X48127000Y-84616187D01*
X48127000Y-83486030D01*
X61665635Y-83486030D01*
X63000000Y-84820395D01*
X64334365Y-83486030D01*
X64174582Y-83167261D01*
X63383813Y-82857277D01*
X62534613Y-82873503D01*
X61825418Y-83167261D01*
X61665635Y-83486030D01*
X48127000Y-83486030D01*
X48127000Y-78875022D01*
X61304584Y-78875022D01*
X61525353Y-79245743D01*
X62497012Y-79639119D01*
X63545247Y-79630713D01*
X64474647Y-79245743D01*
X64695416Y-78875022D01*
X63000000Y-77179605D01*
X61304584Y-78875022D01*
X48127000Y-78875022D01*
X48127000Y-76497012D01*
X60360881Y-76497012D01*
X60369287Y-77545247D01*
X60754257Y-78474647D01*
X61124978Y-78695416D01*
X62820395Y-77000000D01*
X63179605Y-77000000D01*
X64875022Y-78695416D01*
X65245743Y-78474647D01*
X65639119Y-77502988D01*
X65630713Y-76454753D01*
X65245743Y-75525353D01*
X64875022Y-75304584D01*
X63179605Y-77000000D01*
X62820395Y-77000000D01*
X61124978Y-75304584D01*
X60754257Y-75525353D01*
X60360881Y-76497012D01*
X48127000Y-76497012D01*
X48127000Y-75124978D01*
X61304584Y-75124978D01*
X63000000Y-76820395D01*
X64695416Y-75124978D01*
X64474647Y-74754257D01*
X63502988Y-74360881D01*
X62454753Y-74369287D01*
X61525353Y-74754257D01*
X61304584Y-75124978D01*
X48127000Y-75124978D01*
X48127000Y-62913970D01*
X52665635Y-62913970D01*
X52825418Y-63232739D01*
X53616187Y-63542723D01*
X54465387Y-63526497D01*
X55174582Y-63232739D01*
X55334365Y-62913970D01*
X57745635Y-62913970D01*
X57905418Y-63232739D01*
X58696187Y-63542723D01*
X59545387Y-63526497D01*
X60254582Y-63232739D01*
X60414365Y-62913970D01*
X59080000Y-61579605D01*
X57745635Y-62913970D01*
X55334365Y-62913970D01*
X54000000Y-61579605D01*
X52665635Y-62913970D01*
X48127000Y-62913970D01*
X48127000Y-61016187D01*
X51857277Y-61016187D01*
X51873503Y-61865387D01*
X52167261Y-62574582D01*
X52486030Y-62734365D01*
X53820395Y-61400000D01*
X54179605Y-61400000D01*
X55513970Y-62734365D01*
X55832739Y-62574582D01*
X56142723Y-61783813D01*
X56128056Y-61016187D01*
X56937277Y-61016187D01*
X56953503Y-61865387D01*
X57247261Y-62574582D01*
X57566030Y-62734365D01*
X58900395Y-61400000D01*
X59259605Y-61400000D01*
X60593970Y-62734365D01*
X60912739Y-62574582D01*
X61222723Y-61783813D01*
X61206497Y-60934613D01*
X60912739Y-60225418D01*
X60593970Y-60065635D01*
X59259605Y-61400000D01*
X58900395Y-61400000D01*
X57566030Y-60065635D01*
X57247261Y-60225418D01*
X56937277Y-61016187D01*
X56128056Y-61016187D01*
X56126497Y-60934613D01*
X55832739Y-60225418D01*
X55513970Y-60065635D01*
X54179605Y-61400000D01*
X53820395Y-61400000D01*
X52486030Y-60065635D01*
X52167261Y-60225418D01*
X51857277Y-61016187D01*
X48127000Y-61016187D01*
X48127000Y-59886030D01*
X52665635Y-59886030D01*
X54000000Y-61220395D01*
X55334365Y-59886030D01*
X57745635Y-59886030D01*
X59080000Y-61220395D01*
X60414365Y-59886030D01*
X60254582Y-59567261D01*
X59463813Y-59257277D01*
X58614613Y-59273503D01*
X57905418Y-59567261D01*
X57745635Y-59886030D01*
X55334365Y-59886030D01*
X55174582Y-59567261D01*
X54383813Y-59257277D01*
X53534613Y-59273503D01*
X52825418Y-59567261D01*
X52665635Y-59886030D01*
X48127000Y-59886030D01*
X48127000Y-56840250D01*
X51372545Y-56840250D01*
X51771639Y-57806132D01*
X52509981Y-58545764D01*
X53475165Y-58946543D01*
X54520250Y-58947455D01*
X55486132Y-58548361D01*
X56225764Y-57810019D01*
X56540279Y-57052582D01*
X56851639Y-57806132D01*
X57589981Y-58545764D01*
X58555165Y-58946543D01*
X59600250Y-58947455D01*
X60566132Y-58548361D01*
X61305764Y-57810019D01*
X61706543Y-56844835D01*
X61707455Y-55799750D01*
X61308361Y-54833868D01*
X60570019Y-54094236D01*
X59604835Y-53693457D01*
X58559750Y-53692545D01*
X57593868Y-54091639D01*
X56854236Y-54829981D01*
X56539721Y-55587418D01*
X56228361Y-54833868D01*
X55490019Y-54094236D01*
X54524835Y-53693457D01*
X53479750Y-53692545D01*
X52513868Y-54091639D01*
X51774236Y-54829981D01*
X51373457Y-55795165D01*
X51372545Y-56840250D01*
X48127000Y-56840250D01*
X48127000Y-52753970D01*
X52665635Y-52753970D01*
X52825418Y-53072739D01*
X53616187Y-53382723D01*
X54465387Y-53366497D01*
X55174582Y-53072739D01*
X55334365Y-52753970D01*
X57745635Y-52753970D01*
X57905418Y-53072739D01*
X58696187Y-53382723D01*
X59545387Y-53366497D01*
X60254582Y-53072739D01*
X60414365Y-52753970D01*
X59080000Y-51419605D01*
X57745635Y-52753970D01*
X55334365Y-52753970D01*
X54000000Y-51419605D01*
X52665635Y-52753970D01*
X48127000Y-52753970D01*
X48127000Y-50856187D01*
X51857277Y-50856187D01*
X51873503Y-51705387D01*
X52167261Y-52414582D01*
X52486030Y-52574365D01*
X53820395Y-51240000D01*
X54179605Y-51240000D01*
X55513970Y-52574365D01*
X55832739Y-52414582D01*
X56142723Y-51623813D01*
X56128056Y-50856187D01*
X56937277Y-50856187D01*
X56953503Y-51705387D01*
X57247261Y-52414582D01*
X57566030Y-52574365D01*
X58900395Y-51240000D01*
X59259605Y-51240000D01*
X60593970Y-52574365D01*
X60912739Y-52414582D01*
X61222723Y-51623813D01*
X61206497Y-50774613D01*
X60912739Y-50065418D01*
X60593970Y-49905635D01*
X59259605Y-51240000D01*
X58900395Y-51240000D01*
X57566030Y-49905635D01*
X57247261Y-50065418D01*
X56937277Y-50856187D01*
X56128056Y-50856187D01*
X56126497Y-50774613D01*
X55832739Y-50065418D01*
X55513970Y-49905635D01*
X54179605Y-51240000D01*
X53820395Y-51240000D01*
X52486030Y-49905635D01*
X52167261Y-50065418D01*
X51857277Y-50856187D01*
X48127000Y-50856187D01*
X48127000Y-49726030D01*
X52665635Y-49726030D01*
X54000000Y-51060395D01*
X55334365Y-49726030D01*
X57745635Y-49726030D01*
X59080000Y-51060395D01*
X60414365Y-49726030D01*
X60254582Y-49407261D01*
X59463813Y-49097277D01*
X58614613Y-49113503D01*
X57905418Y-49407261D01*
X57745635Y-49726030D01*
X55334365Y-49726030D01*
X55174582Y-49407261D01*
X54383813Y-49097277D01*
X53534613Y-49113503D01*
X52825418Y-49407261D01*
X52665635Y-49726030D01*
X48127000Y-49726030D01*
X48127000Y-46680250D01*
X51372545Y-46680250D01*
X51771639Y-47646132D01*
X52509981Y-48385764D01*
X53475165Y-48786543D01*
X54520250Y-48787455D01*
X55486132Y-48388361D01*
X56225764Y-47650019D01*
X56540279Y-46892582D01*
X56851639Y-47646132D01*
X57589981Y-48385764D01*
X58555165Y-48786543D01*
X59600250Y-48787455D01*
X60566132Y-48388361D01*
X61305764Y-47650019D01*
X61706543Y-46684835D01*
X61707455Y-45639750D01*
X61308361Y-44673868D01*
X60570019Y-43934236D01*
X59604835Y-43533457D01*
X58559750Y-43532545D01*
X57593868Y-43931639D01*
X56854236Y-44669981D01*
X56539721Y-45427418D01*
X56228361Y-44673868D01*
X55490019Y-43934236D01*
X54524835Y-43533457D01*
X53479750Y-43532545D01*
X52513868Y-43931639D01*
X51774236Y-44669981D01*
X51373457Y-45635165D01*
X51372545Y-46680250D01*
X48127000Y-46680250D01*
X48127000Y-42593970D01*
X52665635Y-42593970D01*
X52825418Y-42912739D01*
X53616187Y-43222723D01*
X54465387Y-43206497D01*
X55174582Y-42912739D01*
X55334365Y-42593970D01*
X57745635Y-42593970D01*
X57905418Y-42912739D01*
X58696187Y-43222723D01*
X59545387Y-43206497D01*
X60254582Y-42912739D01*
X60414365Y-42593970D01*
X59080000Y-41259605D01*
X57745635Y-42593970D01*
X55334365Y-42593970D01*
X54000000Y-41259605D01*
X52665635Y-42593970D01*
X48127000Y-42593970D01*
X48127000Y-40696187D01*
X51857277Y-40696187D01*
X51873503Y-41545387D01*
X52167261Y-42254582D01*
X52486030Y-42414365D01*
X53820395Y-41080000D01*
X54179605Y-41080000D01*
X55513970Y-42414365D01*
X55832739Y-42254582D01*
X56142723Y-41463813D01*
X56128056Y-40696187D01*
X56937277Y-40696187D01*
X56953503Y-41545387D01*
X57247261Y-42254582D01*
X57566030Y-42414365D01*
X58900395Y-41080000D01*
X59259605Y-41080000D01*
X60593970Y-42414365D01*
X60912739Y-42254582D01*
X61222723Y-41463813D01*
X61206497Y-40614613D01*
X60912739Y-39905418D01*
X60593970Y-39745635D01*
X59259605Y-41080000D01*
X58900395Y-41080000D01*
X57566030Y-39745635D01*
X57247261Y-39905418D01*
X56937277Y-40696187D01*
X56128056Y-40696187D01*
X56126497Y-40614613D01*
X55832739Y-39905418D01*
X55513970Y-39745635D01*
X54179605Y-41080000D01*
X53820395Y-41080000D01*
X52486030Y-39745635D01*
X52167261Y-39905418D01*
X51857277Y-40696187D01*
X48127000Y-40696187D01*
X48127000Y-39566030D01*
X52665635Y-39566030D01*
X54000000Y-40900395D01*
X55334365Y-39566030D01*
X57745635Y-39566030D01*
X59080000Y-40900395D01*
X60414365Y-39566030D01*
X60254582Y-39247261D01*
X59463813Y-38937277D01*
X58614613Y-38953503D01*
X57905418Y-39247261D01*
X57745635Y-39566030D01*
X55334365Y-39566030D01*
X55174582Y-39247261D01*
X54383813Y-38937277D01*
X53534613Y-38953503D01*
X52825418Y-39247261D01*
X52665635Y-39566030D01*
X48127000Y-39566030D01*
X48127000Y-35012509D01*
X48228944Y-34500000D01*
X51350921Y-34500000D01*
X51350921Y-37500000D01*
X51429506Y-37917641D01*
X51676331Y-38301219D01*
X52052944Y-38558548D01*
X52500000Y-38649079D01*
X55500000Y-38649079D01*
X55917641Y-38570494D01*
X56301219Y-38323669D01*
X56543039Y-37969754D01*
X56756331Y-38301219D01*
X57132944Y-38558548D01*
X57580000Y-38649079D01*
X60580000Y-38649079D01*
X60997641Y-38570494D01*
X61381219Y-38323669D01*
X61638548Y-37947056D01*
X61729079Y-37500000D01*
X61729079Y-34500000D01*
X61650494Y-34082359D01*
X61403669Y-33698781D01*
X61027056Y-33441452D01*
X60580000Y-33350921D01*
X57580000Y-33350921D01*
X57162359Y-33429506D01*
X56778781Y-33676331D01*
X56536961Y-34030246D01*
X56323669Y-33698781D01*
X55947056Y-33441452D01*
X55500000Y-33350921D01*
X52500000Y-33350921D01*
X52082359Y-33429506D01*
X51698781Y-33676331D01*
X51441452Y-34052944D01*
X51350921Y-34500000D01*
X48228944Y-34500000D01*
X48347993Y-33901503D01*
X48970242Y-32970242D01*
X49901503Y-32347993D01*
X51012509Y-32127000D01*
X66987491Y-32127000D01*
X68098497Y-32347993D01*
X68098497Y-32347993D01*
G37*
X68098497Y-32347993D02*
X69029758Y-32970242D01*
X69652007Y-33901503D01*
X69873000Y-35012509D01*
X69873000Y-103987491D01*
X69652007Y-105098497D01*
X69029758Y-106029758D01*
X68098497Y-106652007D01*
X66987491Y-106873000D01*
X51012509Y-106873000D01*
X49901503Y-106652007D01*
X48970242Y-106029758D01*
X48347993Y-105098497D01*
X48195790Y-104333320D01*
X61846285Y-104333320D01*
X61975533Y-104626123D01*
X62675806Y-104894388D01*
X63425435Y-104874250D01*
X64024467Y-104626123D01*
X64153715Y-104333320D01*
X63000000Y-103179605D01*
X61846285Y-104333320D01*
X48195790Y-104333320D01*
X48127000Y-103987491D01*
X48127000Y-102675806D01*
X61105612Y-102675806D01*
X61125750Y-103425435D01*
X61373877Y-104024467D01*
X61666680Y-104153715D01*
X62820395Y-103000000D01*
X63179605Y-103000000D01*
X64333320Y-104153715D01*
X64626123Y-104024467D01*
X64894388Y-103324194D01*
X64874250Y-102574565D01*
X64626123Y-101975533D01*
X64333320Y-101846285D01*
X63179605Y-103000000D01*
X62820395Y-103000000D01*
X61666680Y-101846285D01*
X61373877Y-101975533D01*
X61105612Y-102675806D01*
X48127000Y-102675806D01*
X48127000Y-101666680D01*
X61846285Y-101666680D01*
X63000000Y-102820395D01*
X64153715Y-101666680D01*
X64024467Y-101373877D01*
X63324194Y-101105612D01*
X62574565Y-101125750D01*
X61975533Y-101373877D01*
X61846285Y-101666680D01*
X48127000Y-101666680D01*
X48127000Y-94333320D01*
X61846285Y-94333320D01*
X61975533Y-94626123D01*
X62675806Y-94894388D01*
X63425435Y-94874250D01*
X64024467Y-94626123D01*
X64153715Y-94333320D01*
X63000000Y-93179605D01*
X61846285Y-94333320D01*
X48127000Y-94333320D01*
X48127000Y-92675806D01*
X61105612Y-92675806D01*
X61125750Y-93425435D01*
X61373877Y-94024467D01*
X61666680Y-94153715D01*
X62820395Y-93000000D01*
X63179605Y-93000000D01*
X64333320Y-94153715D01*
X64626123Y-94024467D01*
X64894388Y-93324194D01*
X64874250Y-92574565D01*
X64626123Y-91975533D01*
X64333320Y-91846285D01*
X63179605Y-93000000D01*
X62820395Y-93000000D01*
X61666680Y-91846285D01*
X61373877Y-91975533D01*
X61105612Y-92675806D01*
X48127000Y-92675806D01*
X48127000Y-91666680D01*
X61846285Y-91666680D01*
X63000000Y-92820395D01*
X64153715Y-91666680D01*
X64024467Y-91373877D01*
X63324194Y-91105612D01*
X62574565Y-91125750D01*
X61975533Y-91373877D01*
X61846285Y-91666680D01*
X48127000Y-91666680D01*
X48127000Y-86513970D01*
X61665635Y-86513970D01*
X61825418Y-86832739D01*
X62616187Y-87142723D01*
X63465387Y-87126497D01*
X64174582Y-86832739D01*
X64334365Y-86513970D01*
X63000000Y-85179605D01*
X61665635Y-86513970D01*
X48127000Y-86513970D01*
X48127000Y-84616187D01*
X60857277Y-84616187D01*
X60873503Y-85465387D01*
X61167261Y-86174582D01*
X61486030Y-86334365D01*
X62820395Y-85000000D01*
X63179605Y-85000000D01*
X64513970Y-86334365D01*
X64832739Y-86174582D01*
X65142723Y-85383813D01*
X65126497Y-84534613D01*
X64832739Y-83825418D01*
X64513970Y-83665635D01*
X63179605Y-85000000D01*
X62820395Y-85000000D01*
X61486030Y-83665635D01*
X61167261Y-83825418D01*
X60857277Y-84616187D01*
X48127000Y-84616187D01*
X48127000Y-83486030D01*
X61665635Y-83486030D01*
X63000000Y-84820395D01*
X64334365Y-83486030D01*
X64174582Y-83167261D01*
X63383813Y-82857277D01*
X62534613Y-82873503D01*
X61825418Y-83167261D01*
X61665635Y-83486030D01*
X48127000Y-83486030D01*
X48127000Y-78875022D01*
X61304584Y-78875022D01*
X61525353Y-79245743D01*
X62497012Y-79639119D01*
X63545247Y-79630713D01*
X64474647Y-79245743D01*
X64695416Y-78875022D01*
X63000000Y-77179605D01*
X61304584Y-78875022D01*
X48127000Y-78875022D01*
X48127000Y-76497012D01*
X60360881Y-76497012D01*
X60369287Y-77545247D01*
X60754257Y-78474647D01*
X61124978Y-78695416D01*
X62820395Y-77000000D01*
X63179605Y-77000000D01*
X64875022Y-78695416D01*
X65245743Y-78474647D01*
X65639119Y-77502988D01*
X65630713Y-76454753D01*
X65245743Y-75525353D01*
X64875022Y-75304584D01*
X63179605Y-77000000D01*
X62820395Y-77000000D01*
X61124978Y-75304584D01*
X60754257Y-75525353D01*
X60360881Y-76497012D01*
X48127000Y-76497012D01*
X48127000Y-75124978D01*
X61304584Y-75124978D01*
X63000000Y-76820395D01*
X64695416Y-75124978D01*
X64474647Y-74754257D01*
X63502988Y-74360881D01*
X62454753Y-74369287D01*
X61525353Y-74754257D01*
X61304584Y-75124978D01*
X48127000Y-75124978D01*
X48127000Y-62913970D01*
X52665635Y-62913970D01*
X52825418Y-63232739D01*
X53616187Y-63542723D01*
X54465387Y-63526497D01*
X55174582Y-63232739D01*
X55334365Y-62913970D01*
X57745635Y-62913970D01*
X57905418Y-63232739D01*
X58696187Y-63542723D01*
X59545387Y-63526497D01*
X60254582Y-63232739D01*
X60414365Y-62913970D01*
X59080000Y-61579605D01*
X57745635Y-62913970D01*
X55334365Y-62913970D01*
X54000000Y-61579605D01*
X52665635Y-62913970D01*
X48127000Y-62913970D01*
X48127000Y-61016187D01*
X51857277Y-61016187D01*
X51873503Y-61865387D01*
X52167261Y-62574582D01*
X52486030Y-62734365D01*
X53820395Y-61400000D01*
X54179605Y-61400000D01*
X55513970Y-62734365D01*
X55832739Y-62574582D01*
X56142723Y-61783813D01*
X56128056Y-61016187D01*
X56937277Y-61016187D01*
X56953503Y-61865387D01*
X57247261Y-62574582D01*
X57566030Y-62734365D01*
X58900395Y-61400000D01*
X59259605Y-61400000D01*
X60593970Y-62734365D01*
X60912739Y-62574582D01*
X61222723Y-61783813D01*
X61206497Y-60934613D01*
X60912739Y-60225418D01*
X60593970Y-60065635D01*
X59259605Y-61400000D01*
X58900395Y-61400000D01*
X57566030Y-60065635D01*
X57247261Y-60225418D01*
X56937277Y-61016187D01*
X56128056Y-61016187D01*
X56126497Y-60934613D01*
X55832739Y-60225418D01*
X55513970Y-60065635D01*
X54179605Y-61400000D01*
X53820395Y-61400000D01*
X52486030Y-60065635D01*
X52167261Y-60225418D01*
X51857277Y-61016187D01*
X48127000Y-61016187D01*
X48127000Y-59886030D01*
X52665635Y-59886030D01*
X54000000Y-61220395D01*
X55334365Y-59886030D01*
X57745635Y-59886030D01*
X59080000Y-61220395D01*
X60414365Y-59886030D01*
X60254582Y-59567261D01*
X59463813Y-59257277D01*
X58614613Y-59273503D01*
X57905418Y-59567261D01*
X57745635Y-59886030D01*
X55334365Y-59886030D01*
X55174582Y-59567261D01*
X54383813Y-59257277D01*
X53534613Y-59273503D01*
X52825418Y-59567261D01*
X52665635Y-59886030D01*
X48127000Y-59886030D01*
X48127000Y-56840250D01*
X51372545Y-56840250D01*
X51771639Y-57806132D01*
X52509981Y-58545764D01*
X53475165Y-58946543D01*
X54520250Y-58947455D01*
X55486132Y-58548361D01*
X56225764Y-57810019D01*
X56540279Y-57052582D01*
X56851639Y-57806132D01*
X57589981Y-58545764D01*
X58555165Y-58946543D01*
X59600250Y-58947455D01*
X60566132Y-58548361D01*
X61305764Y-57810019D01*
X61706543Y-56844835D01*
X61707455Y-55799750D01*
X61308361Y-54833868D01*
X60570019Y-54094236D01*
X59604835Y-53693457D01*
X58559750Y-53692545D01*
X57593868Y-54091639D01*
X56854236Y-54829981D01*
X56539721Y-55587418D01*
X56228361Y-54833868D01*
X55490019Y-54094236D01*
X54524835Y-53693457D01*
X53479750Y-53692545D01*
X52513868Y-54091639D01*
X51774236Y-54829981D01*
X51373457Y-55795165D01*
X51372545Y-56840250D01*
X48127000Y-56840250D01*
X48127000Y-52753970D01*
X52665635Y-52753970D01*
X52825418Y-53072739D01*
X53616187Y-53382723D01*
X54465387Y-53366497D01*
X55174582Y-53072739D01*
X55334365Y-52753970D01*
X57745635Y-52753970D01*
X57905418Y-53072739D01*
X58696187Y-53382723D01*
X59545387Y-53366497D01*
X60254582Y-53072739D01*
X60414365Y-52753970D01*
X59080000Y-51419605D01*
X57745635Y-52753970D01*
X55334365Y-52753970D01*
X54000000Y-51419605D01*
X52665635Y-52753970D01*
X48127000Y-52753970D01*
X48127000Y-50856187D01*
X51857277Y-50856187D01*
X51873503Y-51705387D01*
X52167261Y-52414582D01*
X52486030Y-52574365D01*
X53820395Y-51240000D01*
X54179605Y-51240000D01*
X55513970Y-52574365D01*
X55832739Y-52414582D01*
X56142723Y-51623813D01*
X56128056Y-50856187D01*
X56937277Y-50856187D01*
X56953503Y-51705387D01*
X57247261Y-52414582D01*
X57566030Y-52574365D01*
X58900395Y-51240000D01*
X59259605Y-51240000D01*
X60593970Y-52574365D01*
X60912739Y-52414582D01*
X61222723Y-51623813D01*
X61206497Y-50774613D01*
X60912739Y-50065418D01*
X60593970Y-49905635D01*
X59259605Y-51240000D01*
X58900395Y-51240000D01*
X57566030Y-49905635D01*
X57247261Y-50065418D01*
X56937277Y-50856187D01*
X56128056Y-50856187D01*
X56126497Y-50774613D01*
X55832739Y-50065418D01*
X55513970Y-49905635D01*
X54179605Y-51240000D01*
X53820395Y-51240000D01*
X52486030Y-49905635D01*
X52167261Y-50065418D01*
X51857277Y-50856187D01*
X48127000Y-50856187D01*
X48127000Y-49726030D01*
X52665635Y-49726030D01*
X54000000Y-51060395D01*
X55334365Y-49726030D01*
X57745635Y-49726030D01*
X59080000Y-51060395D01*
X60414365Y-49726030D01*
X60254582Y-49407261D01*
X59463813Y-49097277D01*
X58614613Y-49113503D01*
X57905418Y-49407261D01*
X57745635Y-49726030D01*
X55334365Y-49726030D01*
X55174582Y-49407261D01*
X54383813Y-49097277D01*
X53534613Y-49113503D01*
X52825418Y-49407261D01*
X52665635Y-49726030D01*
X48127000Y-49726030D01*
X48127000Y-46680250D01*
X51372545Y-46680250D01*
X51771639Y-47646132D01*
X52509981Y-48385764D01*
X53475165Y-48786543D01*
X54520250Y-48787455D01*
X55486132Y-48388361D01*
X56225764Y-47650019D01*
X56540279Y-46892582D01*
X56851639Y-47646132D01*
X57589981Y-48385764D01*
X58555165Y-48786543D01*
X59600250Y-48787455D01*
X60566132Y-48388361D01*
X61305764Y-47650019D01*
X61706543Y-46684835D01*
X61707455Y-45639750D01*
X61308361Y-44673868D01*
X60570019Y-43934236D01*
X59604835Y-43533457D01*
X58559750Y-43532545D01*
X57593868Y-43931639D01*
X56854236Y-44669981D01*
X56539721Y-45427418D01*
X56228361Y-44673868D01*
X55490019Y-43934236D01*
X54524835Y-43533457D01*
X53479750Y-43532545D01*
X52513868Y-43931639D01*
X51774236Y-44669981D01*
X51373457Y-45635165D01*
X51372545Y-46680250D01*
X48127000Y-46680250D01*
X48127000Y-42593970D01*
X52665635Y-42593970D01*
X52825418Y-42912739D01*
X53616187Y-43222723D01*
X54465387Y-43206497D01*
X55174582Y-42912739D01*
X55334365Y-42593970D01*
X57745635Y-42593970D01*
X57905418Y-42912739D01*
X58696187Y-43222723D01*
X59545387Y-43206497D01*
X60254582Y-42912739D01*
X60414365Y-42593970D01*
X59080000Y-41259605D01*
X57745635Y-42593970D01*
X55334365Y-42593970D01*
X54000000Y-41259605D01*
X52665635Y-42593970D01*
X48127000Y-42593970D01*
X48127000Y-40696187D01*
X51857277Y-40696187D01*
X51873503Y-41545387D01*
X52167261Y-42254582D01*
X52486030Y-42414365D01*
X53820395Y-41080000D01*
X54179605Y-41080000D01*
X55513970Y-42414365D01*
X55832739Y-42254582D01*
X56142723Y-41463813D01*
X56128056Y-40696187D01*
X56937277Y-40696187D01*
X56953503Y-41545387D01*
X57247261Y-42254582D01*
X57566030Y-42414365D01*
X58900395Y-41080000D01*
X59259605Y-41080000D01*
X60593970Y-42414365D01*
X60912739Y-42254582D01*
X61222723Y-41463813D01*
X61206497Y-40614613D01*
X60912739Y-39905418D01*
X60593970Y-39745635D01*
X59259605Y-41080000D01*
X58900395Y-41080000D01*
X57566030Y-39745635D01*
X57247261Y-39905418D01*
X56937277Y-40696187D01*
X56128056Y-40696187D01*
X56126497Y-40614613D01*
X55832739Y-39905418D01*
X55513970Y-39745635D01*
X54179605Y-41080000D01*
X53820395Y-41080000D01*
X52486030Y-39745635D01*
X52167261Y-39905418D01*
X51857277Y-40696187D01*
X48127000Y-40696187D01*
X48127000Y-39566030D01*
X52665635Y-39566030D01*
X54000000Y-40900395D01*
X55334365Y-39566030D01*
X57745635Y-39566030D01*
X59080000Y-40900395D01*
X60414365Y-39566030D01*
X60254582Y-39247261D01*
X59463813Y-38937277D01*
X58614613Y-38953503D01*
X57905418Y-39247261D01*
X57745635Y-39566030D01*
X55334365Y-39566030D01*
X55174582Y-39247261D01*
X54383813Y-38937277D01*
X53534613Y-38953503D01*
X52825418Y-39247261D01*
X52665635Y-39566030D01*
X48127000Y-39566030D01*
X48127000Y-35012509D01*
X48228944Y-34500000D01*
X51350921Y-34500000D01*
X51350921Y-37500000D01*
X51429506Y-37917641D01*
X51676331Y-38301219D01*
X52052944Y-38558548D01*
X52500000Y-38649079D01*
X55500000Y-38649079D01*
X55917641Y-38570494D01*
X56301219Y-38323669D01*
X56543039Y-37969754D01*
X56756331Y-38301219D01*
X57132944Y-38558548D01*
X57580000Y-38649079D01*
X60580000Y-38649079D01*
X60997641Y-38570494D01*
X61381219Y-38323669D01*
X61638548Y-37947056D01*
X61729079Y-37500000D01*
X61729079Y-34500000D01*
X61650494Y-34082359D01*
X61403669Y-33698781D01*
X61027056Y-33441452D01*
X60580000Y-33350921D01*
X57580000Y-33350921D01*
X57162359Y-33429506D01*
X56778781Y-33676331D01*
X56536961Y-34030246D01*
X56323669Y-33698781D01*
X55947056Y-33441452D01*
X55500000Y-33350921D01*
X52500000Y-33350921D01*
X52082359Y-33429506D01*
X51698781Y-33676331D01*
X51441452Y-34052944D01*
X51350921Y-34500000D01*
X48228944Y-34500000D01*
X48347993Y-33901503D01*
X48970242Y-32970242D01*
X49901503Y-32347993D01*
X51012509Y-32127000D01*
X66987491Y-32127000D01*
X68098497Y-32347993D01*
M02*
