G04 #@! TF.FileFunction,Copper,L1,Top,Signal*
%FSLAX46Y46*%
G04 Gerber Fmt 4.6, Leading zero omitted, Abs format (unit mm)*
G04 Created by KiCad (PCBNEW 4.0.0-stable) date Thursday, December 17, 2015 'AMt' 12:16:44 AM*
%MOMM*%
G01*
G04 APERTURE LIST*
%ADD10C,0.100000*%
%ADD11C,3.000000*%
%ADD12C,2.500000*%
%ADD13C,2.000000*%
%ADD14R,3.000000X3.000000*%
%ADD15C,4.000000*%
%ADD16C,4.000000*%
G04 APERTURE END LIST*
D10*
D11*
X154000000Y-149000000D03*
X154000000Y-97000000D03*
D12*
X154000000Y-142000000D03*
X154000000Y-138000000D03*
D13*
X154000000Y-134000000D03*
D12*
X154000000Y-104000000D03*
D13*
X154000000Y-112000000D03*
D12*
X154000000Y-108000000D03*
D14*
X146000000Y-36000000D03*
D11*
X146000000Y-41080000D03*
X146000000Y-46160000D03*
X146000000Y-51240000D03*
D14*
X54000000Y-36000000D03*
D11*
X54000000Y-41080000D03*
X54000000Y-46160000D03*
X54000000Y-51240000D03*
X54000000Y-56320000D03*
X54000000Y-61400000D03*
D12*
X148000000Y-81000000D03*
X154000000Y-81000000D03*
D11*
X103000000Y-74000000D03*
X110000000Y-95000000D03*
X215000000Y-36000000D03*
X215000000Y-76000000D03*
X193000000Y-76000000D03*
X193000000Y-36000000D03*
X93000000Y-118000000D03*
X93000000Y-110000000D03*
D15*
X204000000Y-149000000D03*
X204000000Y-77000000D03*
D12*
X204000000Y-133000000D03*
D11*
X204000000Y-141000000D03*
D12*
X204000000Y-93000000D03*
D11*
X204000000Y-85000000D03*
D12*
X204000000Y-123000000D03*
X204000000Y-103000000D03*
D15*
X63000000Y-149000000D03*
X63000000Y-77000000D03*
D12*
X63000000Y-133000000D03*
D11*
X63000000Y-141000000D03*
D12*
X63000000Y-93000000D03*
D11*
X63000000Y-85000000D03*
D12*
X63000000Y-123000000D03*
X63000000Y-103000000D03*
D16*
X204000000Y-133000000D02*
X204000000Y-123000000D01*
X204000000Y-141000000D02*
X204000000Y-133000000D01*
X204000000Y-149000000D02*
X204000000Y-141000000D01*
X154000000Y-142000000D02*
X154000000Y-149000000D01*
X154000000Y-138000000D02*
X154000000Y-142000000D01*
X154000000Y-134000000D02*
X154000000Y-138000000D01*
X143000000Y-93767766D02*
X143000000Y-123000000D01*
X143000000Y-123000000D02*
X154000000Y-134000000D01*
X154000000Y-81000000D02*
X154000000Y-82767766D01*
X154000000Y-82767766D02*
X143000000Y-93767766D01*
X154000000Y-149000000D02*
X204000000Y-149000000D01*
X54000000Y-56320000D02*
X61720002Y-56320000D01*
X61720002Y-56320000D02*
X93000000Y-87599998D01*
X93000000Y-87599998D02*
X93000000Y-110000000D01*
X146000000Y-51240000D02*
X142999999Y-54240001D01*
X146232234Y-81000000D02*
X148000000Y-81000000D01*
X142999999Y-54240001D02*
X142999999Y-77767765D01*
X142999999Y-77767765D02*
X146232234Y-81000000D01*
X146000000Y-41080000D02*
X143878680Y-41080000D01*
X143878680Y-41080000D02*
X141499999Y-43458681D01*
X141499999Y-43458681D02*
X141499999Y-48861319D01*
X141499999Y-48861319D02*
X143878680Y-51240000D01*
X143878680Y-51240000D02*
X146000000Y-51240000D01*
X54000000Y-46160000D02*
X51878680Y-46160000D01*
X51878680Y-46160000D02*
X49499999Y-43781319D01*
X49499999Y-43781319D02*
X49499999Y-38919999D01*
X49499999Y-38919999D02*
X52419998Y-36000000D01*
X52419998Y-36000000D02*
X54000000Y-36000000D01*
X54000000Y-46160000D02*
X61160000Y-46160000D01*
X61160000Y-46160000D02*
X110000000Y-95000000D01*
M02*
