G04 #@! TF.FileFunction,Copper,L1,Top,Signal*
%FSLAX46Y46*%
G04 Gerber Fmt 4.6, Leading zero omitted, Abs format (unit mm)*
G04 Created by KiCad (PCBNEW 4.0.0-stable) date Monday, December 28, 2015 'PMt' 03:33:22 PM*
%MOMM*%
G01*
G04 APERTURE LIST*
%ADD10C,0.100000*%
%ADD11C,0.381000*%
%ADD12C,4.000000*%
%ADD13C,3.000000*%
%ADD14C,6.000000*%
%ADD15C,2.500000*%
%ADD16C,2.000000*%
%ADD17R,3.000000X3.000000*%
%ADD18C,10.000000*%
%ADD19C,4.000000*%
G04 APERTURE END LIST*
D10*
D11*
X171689860Y-148331220D02*
X173160520Y-147970540D01*
X173160520Y-147970540D02*
X172098800Y-147691140D01*
X172098800Y-147691140D02*
X173170680Y-147381260D01*
X173170680Y-147381260D02*
X171720340Y-147040900D01*
X172380740Y-149751080D02*
X172370580Y-148961140D01*
X172370580Y-148961140D02*
X172380740Y-148950980D01*
X172380740Y-148950980D02*
X172370580Y-148950980D01*
X171659380Y-148910340D02*
X173201160Y-148910340D01*
X171649220Y-149799340D02*
X173218940Y-149799340D01*
X173218940Y-149799340D02*
X173208780Y-149789180D01*
X171750820Y-150350520D02*
X171669540Y-150701040D01*
X171669540Y-150701040D02*
X171659380Y-151021080D01*
X171659380Y-151021080D02*
X171860040Y-151259840D01*
X171860040Y-151259840D02*
X172129280Y-151290320D01*
X172129280Y-151290320D02*
X172370580Y-151049020D01*
X172370580Y-151049020D02*
X172500120Y-150660400D01*
X172500120Y-150660400D02*
X172660140Y-150480060D01*
X172660140Y-150480060D02*
X172959860Y-150439420D01*
X172959860Y-150439420D02*
X173180840Y-150670560D01*
X173180840Y-150670560D02*
X173208780Y-150990600D01*
X173208780Y-150990600D02*
X173099560Y-151341120D01*
X171649220Y-152379980D02*
X171669540Y-152628900D01*
X171669540Y-152628900D02*
X171910840Y-152870200D01*
X171910840Y-152870200D02*
X172401060Y-152959100D01*
X172401060Y-152959100D02*
X172749040Y-152931160D01*
X172749040Y-152931160D02*
X173069080Y-152730500D01*
X173069080Y-152730500D02*
X173191000Y-152479040D01*
X173191000Y-152479040D02*
X173119880Y-152169160D01*
X173119880Y-152169160D02*
X172939540Y-151950720D01*
X172939540Y-151950720D02*
X172479800Y-151879600D01*
X172479800Y-151879600D02*
X172070860Y-151930400D01*
X172070860Y-151930400D02*
X171788920Y-152039620D01*
X171788920Y-152039620D02*
X171659380Y-152400300D01*
X169929640Y-151780540D02*
X170490980Y-152039620D01*
X170490980Y-152039620D02*
X171009140Y-151501140D01*
X171009140Y-151501140D02*
X170739900Y-150980440D01*
X170739900Y-150980440D02*
X170899920Y-150701040D01*
X170879600Y-149260860D02*
X170689100Y-148930660D01*
X170689100Y-148930660D02*
X171019300Y-148491240D01*
X171019300Y-148491240D02*
X170529080Y-148018800D01*
X170529080Y-148018800D02*
X170049020Y-148300740D01*
X170049020Y-148300740D02*
X169579120Y-148110240D01*
X169579120Y-148110240D02*
X169391160Y-147500640D01*
X169391160Y-147500640D02*
X168710440Y-147500640D01*
X168710440Y-147500640D02*
X168570740Y-148059440D01*
X168570740Y-148059440D02*
X167999240Y-148260100D01*
X167999240Y-148260100D02*
X167529340Y-147990860D01*
X167529340Y-147990860D02*
X167018800Y-148460760D01*
X167018800Y-148460760D02*
X167280420Y-148978920D01*
X167280420Y-148978920D02*
X167079760Y-149448820D01*
X167079760Y-149448820D02*
X166538740Y-149619000D01*
X166538740Y-149619000D02*
X166520960Y-150309880D01*
X166520960Y-150309880D02*
X167069600Y-150520700D01*
X167069600Y-150520700D02*
X167239780Y-150939800D01*
X167239780Y-150939800D02*
X166970540Y-151490980D01*
X166970540Y-151490980D02*
X167498860Y-152009140D01*
X167498860Y-152009140D02*
X168039880Y-151760220D01*
X168039880Y-151760220D02*
X168519940Y-151930400D01*
X168519940Y-151930400D02*
X168619000Y-152479040D01*
X168619000Y-152479040D02*
X169320040Y-152489200D01*
X169320040Y-152489200D02*
X169520700Y-151930400D01*
X169520700Y-151930400D02*
X169919480Y-151790700D01*
X169899160Y-149649480D02*
X169749300Y-149349760D01*
X169749300Y-149349760D02*
X169551180Y-149149100D01*
X169551180Y-149149100D02*
X169149860Y-148999240D01*
X169149860Y-148999240D02*
X168751080Y-148999240D01*
X168751080Y-148999240D02*
X168400560Y-149149100D01*
X168400560Y-149149100D02*
X168050040Y-149601220D01*
X168050040Y-149601220D02*
X167999240Y-150050800D01*
X167999240Y-150050800D02*
X168100840Y-150449580D01*
X168100840Y-150449580D02*
X168448820Y-150850900D01*
X168448820Y-150850900D02*
X168900940Y-151000760D01*
X168900940Y-151000760D02*
X169398780Y-150949960D01*
X169398780Y-150949960D02*
X169701040Y-150701040D01*
X169701040Y-150701040D02*
X169899160Y-150350520D01*
X169899160Y-150350520D02*
X170899920Y-150701040D01*
X169899160Y-149649480D02*
X170899920Y-149250700D01*
X181100080Y-150000000D02*
X181498860Y-150000000D01*
X182298960Y-150701040D02*
X182298960Y-149400560D01*
X182601220Y-149499620D02*
X182601220Y-150701040D01*
X182900940Y-150800100D02*
X182900940Y-149499620D01*
X183299720Y-150000000D02*
X184600200Y-150000000D01*
X184800860Y-149900940D02*
X184800860Y-149700280D01*
X184800860Y-149700280D02*
X183200660Y-149700280D01*
X183299720Y-150299720D02*
X184800860Y-150299720D01*
X184800860Y-150299720D02*
X184800860Y-149799340D01*
X181999240Y-150800100D02*
X181999240Y-149298960D01*
X181999240Y-149298960D02*
X183200660Y-149298960D01*
X183200660Y-149298960D02*
X183200660Y-150800100D01*
X183200660Y-150800100D02*
X181999240Y-150800100D01*
X181616406Y-150000000D02*
G75*
G03X181616406Y-150000000I-315666J0D01*
G01*
X180500640Y-150000000D02*
X180500640Y-150099060D01*
X180500640Y-150099060D02*
X180599700Y-150701040D01*
X180599700Y-150701040D02*
X180800360Y-151198880D01*
X180800360Y-151198880D02*
X181199140Y-151699260D01*
X181199140Y-151699260D02*
X181801120Y-152199640D01*
X181801120Y-152199640D02*
X182199900Y-152400300D01*
X182199900Y-152400300D02*
X182700280Y-152499360D01*
X182700280Y-152499360D02*
X183299720Y-152499360D01*
X183299720Y-152499360D02*
X184099820Y-152301240D01*
X184099820Y-152301240D02*
X184800860Y-151699260D01*
X184800860Y-151699260D02*
X185199640Y-151198880D01*
X185199640Y-151198880D02*
X185499360Y-150500380D01*
X185499360Y-150500380D02*
X185499360Y-149700280D01*
X185499360Y-149700280D02*
X185301240Y-149100840D01*
X185301240Y-149100840D02*
X184998980Y-148498860D01*
X184998980Y-148498860D02*
X184501140Y-148001020D01*
X184501140Y-148001020D02*
X183800100Y-147599700D01*
X183800100Y-147599700D02*
X183200660Y-147500640D01*
X183200660Y-147500640D02*
X182601220Y-147500640D01*
X182601220Y-147500640D02*
X181999240Y-147698760D01*
X181999240Y-147698760D02*
X181498860Y-148001020D01*
X181498860Y-148001020D02*
X181001020Y-148498860D01*
X181001020Y-148498860D02*
X180698760Y-148999240D01*
X180698760Y-148999240D02*
X180599700Y-149400560D01*
X180599700Y-149400560D02*
X180500640Y-150000000D01*
X176099900Y-148249800D02*
X176000840Y-148348860D01*
X176000840Y-148348860D02*
X175899240Y-148549520D01*
X175899240Y-148549520D02*
X175899240Y-148849240D01*
X175899240Y-148849240D02*
X176000840Y-149148960D01*
X176000840Y-149148960D02*
X176399620Y-149349620D01*
X176399620Y-149349620D02*
X176900000Y-149451220D01*
X176900000Y-149451220D02*
X177298780Y-149451220D01*
X177298780Y-149451220D02*
X177700100Y-149250560D01*
X177700100Y-149250560D02*
X177900760Y-148849240D01*
X177900760Y-148849240D02*
X177900760Y-148651120D01*
X177900760Y-148651120D02*
X177900760Y-148348860D01*
X177900760Y-148348860D02*
X177700100Y-148249800D01*
X176099900Y-150248780D02*
X176000840Y-150350380D01*
X176000840Y-150350380D02*
X175899240Y-150650100D01*
X175899240Y-150650100D02*
X176000840Y-151048880D01*
X176000840Y-151048880D02*
X176198960Y-151351140D01*
X176198960Y-151351140D02*
X176600280Y-151450200D01*
X176600280Y-151450200D02*
X176999060Y-151450200D01*
X176999060Y-151450200D02*
X177499440Y-151351140D01*
X177499440Y-151351140D02*
X177799160Y-151150480D01*
X177799160Y-151150480D02*
X177900760Y-150850760D01*
X177900760Y-150850760D02*
X177900760Y-150449440D01*
X177900760Y-150449440D02*
X177700100Y-150248780D01*
X174400640Y-149850000D02*
X174400640Y-149949060D01*
X174400640Y-149949060D02*
X174499700Y-150551040D01*
X174499700Y-150551040D02*
X174700360Y-151048880D01*
X174700360Y-151048880D02*
X175099140Y-151549260D01*
X175099140Y-151549260D02*
X175701120Y-152049640D01*
X175701120Y-152049640D02*
X176099900Y-152250300D01*
X176099900Y-152250300D02*
X176600280Y-152349360D01*
X176600280Y-152349360D02*
X177199720Y-152349360D01*
X177199720Y-152349360D02*
X177999820Y-152151240D01*
X177999820Y-152151240D02*
X178700860Y-151549260D01*
X178700860Y-151549260D02*
X179099640Y-151048880D01*
X179099640Y-151048880D02*
X179399360Y-150350380D01*
X179399360Y-150350380D02*
X179399360Y-149550280D01*
X179399360Y-149550280D02*
X179201240Y-148950840D01*
X179201240Y-148950840D02*
X178898980Y-148348860D01*
X178898980Y-148348860D02*
X178401140Y-147851020D01*
X178401140Y-147851020D02*
X177700100Y-147449700D01*
X177700100Y-147449700D02*
X177100660Y-147350640D01*
X177100660Y-147350640D02*
X176501220Y-147350640D01*
X176501220Y-147350640D02*
X175899240Y-147548760D01*
X175899240Y-147548760D02*
X175398860Y-147851020D01*
X175398860Y-147851020D02*
X174901020Y-148348860D01*
X174901020Y-148348860D02*
X174598760Y-148849240D01*
X174598760Y-148849240D02*
X174499700Y-149250560D01*
X174499700Y-149250560D02*
X174400640Y-149850000D01*
X88099900Y-148249800D02*
X88000840Y-148348860D01*
X88000840Y-148348860D02*
X87899240Y-148549520D01*
X87899240Y-148549520D02*
X87899240Y-148849240D01*
X87899240Y-148849240D02*
X88000840Y-149148960D01*
X88000840Y-149148960D02*
X88399620Y-149349620D01*
X88399620Y-149349620D02*
X88900000Y-149451220D01*
X88900000Y-149451220D02*
X89298780Y-149451220D01*
X89298780Y-149451220D02*
X89700100Y-149250560D01*
X89700100Y-149250560D02*
X89900760Y-148849240D01*
X89900760Y-148849240D02*
X89900760Y-148651120D01*
X89900760Y-148651120D02*
X89900760Y-148348860D01*
X89900760Y-148348860D02*
X89700100Y-148249800D01*
X88099900Y-150248780D02*
X88000840Y-150350380D01*
X88000840Y-150350380D02*
X87899240Y-150650100D01*
X87899240Y-150650100D02*
X88000840Y-151048880D01*
X88000840Y-151048880D02*
X88198960Y-151351140D01*
X88198960Y-151351140D02*
X88600280Y-151450200D01*
X88600280Y-151450200D02*
X88999060Y-151450200D01*
X88999060Y-151450200D02*
X89499440Y-151351140D01*
X89499440Y-151351140D02*
X89799160Y-151150480D01*
X89799160Y-151150480D02*
X89900760Y-150850760D01*
X89900760Y-150850760D02*
X89900760Y-150449440D01*
X89900760Y-150449440D02*
X89700100Y-150248780D01*
X86400640Y-149850000D02*
X86400640Y-149949060D01*
X86400640Y-149949060D02*
X86499700Y-150551040D01*
X86499700Y-150551040D02*
X86700360Y-151048880D01*
X86700360Y-151048880D02*
X87099140Y-151549260D01*
X87099140Y-151549260D02*
X87701120Y-152049640D01*
X87701120Y-152049640D02*
X88099900Y-152250300D01*
X88099900Y-152250300D02*
X88600280Y-152349360D01*
X88600280Y-152349360D02*
X89199720Y-152349360D01*
X89199720Y-152349360D02*
X89999820Y-152151240D01*
X89999820Y-152151240D02*
X90700860Y-151549260D01*
X90700860Y-151549260D02*
X91099640Y-151048880D01*
X91099640Y-151048880D02*
X91399360Y-150350380D01*
X91399360Y-150350380D02*
X91399360Y-149550280D01*
X91399360Y-149550280D02*
X91201240Y-148950840D01*
X91201240Y-148950840D02*
X90898980Y-148348860D01*
X90898980Y-148348860D02*
X90401140Y-147851020D01*
X90401140Y-147851020D02*
X89700100Y-147449700D01*
X89700100Y-147449700D02*
X89100660Y-147350640D01*
X89100660Y-147350640D02*
X88501220Y-147350640D01*
X88501220Y-147350640D02*
X87899240Y-147548760D01*
X87899240Y-147548760D02*
X87398860Y-147851020D01*
X87398860Y-147851020D02*
X86901020Y-148348860D01*
X86901020Y-148348860D02*
X86598760Y-148849240D01*
X86598760Y-148849240D02*
X86499700Y-149250560D01*
X86499700Y-149250560D02*
X86400640Y-149850000D01*
X83689860Y-148331220D02*
X85160520Y-147970540D01*
X85160520Y-147970540D02*
X84098800Y-147691140D01*
X84098800Y-147691140D02*
X85170680Y-147381260D01*
X85170680Y-147381260D02*
X83720340Y-147040900D01*
X84380740Y-149751080D02*
X84370580Y-148961140D01*
X84370580Y-148961140D02*
X84380740Y-148950980D01*
X84380740Y-148950980D02*
X84370580Y-148950980D01*
X83659380Y-148910340D02*
X85201160Y-148910340D01*
X83649220Y-149799340D02*
X85218940Y-149799340D01*
X85218940Y-149799340D02*
X85208780Y-149789180D01*
X83750820Y-150350520D02*
X83669540Y-150701040D01*
X83669540Y-150701040D02*
X83659380Y-151021080D01*
X83659380Y-151021080D02*
X83860040Y-151259840D01*
X83860040Y-151259840D02*
X84129280Y-151290320D01*
X84129280Y-151290320D02*
X84370580Y-151049020D01*
X84370580Y-151049020D02*
X84500120Y-150660400D01*
X84500120Y-150660400D02*
X84660140Y-150480060D01*
X84660140Y-150480060D02*
X84959860Y-150439420D01*
X84959860Y-150439420D02*
X85180840Y-150670560D01*
X85180840Y-150670560D02*
X85208780Y-150990600D01*
X85208780Y-150990600D02*
X85099560Y-151341120D01*
X83649220Y-152379980D02*
X83669540Y-152628900D01*
X83669540Y-152628900D02*
X83910840Y-152870200D01*
X83910840Y-152870200D02*
X84401060Y-152959100D01*
X84401060Y-152959100D02*
X84749040Y-152931160D01*
X84749040Y-152931160D02*
X85069080Y-152730500D01*
X85069080Y-152730500D02*
X85191000Y-152479040D01*
X85191000Y-152479040D02*
X85119880Y-152169160D01*
X85119880Y-152169160D02*
X84939540Y-151950720D01*
X84939540Y-151950720D02*
X84479800Y-151879600D01*
X84479800Y-151879600D02*
X84070860Y-151930400D01*
X84070860Y-151930400D02*
X83788920Y-152039620D01*
X83788920Y-152039620D02*
X83659380Y-152400300D01*
X81929640Y-151780540D02*
X82490980Y-152039620D01*
X82490980Y-152039620D02*
X83009140Y-151501140D01*
X83009140Y-151501140D02*
X82739900Y-150980440D01*
X82739900Y-150980440D02*
X82899920Y-150701040D01*
X82879600Y-149260860D02*
X82689100Y-148930660D01*
X82689100Y-148930660D02*
X83019300Y-148491240D01*
X83019300Y-148491240D02*
X82529080Y-148018800D01*
X82529080Y-148018800D02*
X82049020Y-148300740D01*
X82049020Y-148300740D02*
X81579120Y-148110240D01*
X81579120Y-148110240D02*
X81391160Y-147500640D01*
X81391160Y-147500640D02*
X80710440Y-147500640D01*
X80710440Y-147500640D02*
X80570740Y-148059440D01*
X80570740Y-148059440D02*
X79999240Y-148260100D01*
X79999240Y-148260100D02*
X79529340Y-147990860D01*
X79529340Y-147990860D02*
X79018800Y-148460760D01*
X79018800Y-148460760D02*
X79280420Y-148978920D01*
X79280420Y-148978920D02*
X79079760Y-149448820D01*
X79079760Y-149448820D02*
X78538740Y-149619000D01*
X78538740Y-149619000D02*
X78520960Y-150309880D01*
X78520960Y-150309880D02*
X79069600Y-150520700D01*
X79069600Y-150520700D02*
X79239780Y-150939800D01*
X79239780Y-150939800D02*
X78970540Y-151490980D01*
X78970540Y-151490980D02*
X79498860Y-152009140D01*
X79498860Y-152009140D02*
X80039880Y-151760220D01*
X80039880Y-151760220D02*
X80519940Y-151930400D01*
X80519940Y-151930400D02*
X80619000Y-152479040D01*
X80619000Y-152479040D02*
X81320040Y-152489200D01*
X81320040Y-152489200D02*
X81520700Y-151930400D01*
X81520700Y-151930400D02*
X81919480Y-151790700D01*
X81899160Y-149649480D02*
X81749300Y-149349760D01*
X81749300Y-149349760D02*
X81551180Y-149149100D01*
X81551180Y-149149100D02*
X81149860Y-148999240D01*
X81149860Y-148999240D02*
X80751080Y-148999240D01*
X80751080Y-148999240D02*
X80400560Y-149149100D01*
X80400560Y-149149100D02*
X80050040Y-149601220D01*
X80050040Y-149601220D02*
X79999240Y-150050800D01*
X79999240Y-150050800D02*
X80100840Y-150449580D01*
X80100840Y-150449580D02*
X80448820Y-150850900D01*
X80448820Y-150850900D02*
X80900940Y-151000760D01*
X80900940Y-151000760D02*
X81398780Y-150949960D01*
X81398780Y-150949960D02*
X81701040Y-150701040D01*
X81701040Y-150701040D02*
X81899160Y-150350520D01*
X81899160Y-150350520D02*
X82899920Y-150701040D01*
X81899160Y-149649480D02*
X82899920Y-149250700D01*
X93100080Y-150000000D02*
X93498860Y-150000000D01*
X94298960Y-150701040D02*
X94298960Y-149400560D01*
X94601220Y-149499620D02*
X94601220Y-150701040D01*
X94900940Y-150800100D02*
X94900940Y-149499620D01*
X95299720Y-150000000D02*
X96600200Y-150000000D01*
X96800860Y-149900940D02*
X96800860Y-149700280D01*
X96800860Y-149700280D02*
X95200660Y-149700280D01*
X95299720Y-150299720D02*
X96800860Y-150299720D01*
X96800860Y-150299720D02*
X96800860Y-149799340D01*
X93999240Y-150800100D02*
X93999240Y-149298960D01*
X93999240Y-149298960D02*
X95200660Y-149298960D01*
X95200660Y-149298960D02*
X95200660Y-150800100D01*
X95200660Y-150800100D02*
X93999240Y-150800100D01*
X93616406Y-150000000D02*
G75*
G03X93616406Y-150000000I-315666J0D01*
G01*
X92500640Y-150000000D02*
X92500640Y-150099060D01*
X92500640Y-150099060D02*
X92599700Y-150701040D01*
X92599700Y-150701040D02*
X92800360Y-151198880D01*
X92800360Y-151198880D02*
X93199140Y-151699260D01*
X93199140Y-151699260D02*
X93801120Y-152199640D01*
X93801120Y-152199640D02*
X94199900Y-152400300D01*
X94199900Y-152400300D02*
X94700280Y-152499360D01*
X94700280Y-152499360D02*
X95299720Y-152499360D01*
X95299720Y-152499360D02*
X96099820Y-152301240D01*
X96099820Y-152301240D02*
X96800860Y-151699260D01*
X96800860Y-151699260D02*
X97199640Y-151198880D01*
X97199640Y-151198880D02*
X97499360Y-150500380D01*
X97499360Y-150500380D02*
X97499360Y-149700280D01*
X97499360Y-149700280D02*
X97301240Y-149100840D01*
X97301240Y-149100840D02*
X96998980Y-148498860D01*
X96998980Y-148498860D02*
X96501140Y-148001020D01*
X96501140Y-148001020D02*
X95800100Y-147599700D01*
X95800100Y-147599700D02*
X95200660Y-147500640D01*
X95200660Y-147500640D02*
X94601220Y-147500640D01*
X94601220Y-147500640D02*
X93999240Y-147698760D01*
X93999240Y-147698760D02*
X93498860Y-148001020D01*
X93498860Y-148001020D02*
X93001020Y-148498860D01*
X93001020Y-148498860D02*
X92698760Y-148999240D01*
X92698760Y-148999240D02*
X92599700Y-149400560D01*
X92599700Y-149400560D02*
X92500640Y-150000000D01*
D12*
X114000000Y-71000000D03*
X128000000Y-85000000D03*
X84000000Y-84000000D03*
X98000000Y-71000000D03*
X106000000Y-32000000D03*
D13*
X104000000Y-73000000D03*
X110000000Y-94000000D03*
D12*
X106000000Y-51000000D03*
D14*
X87000000Y-34000000D03*
X131000000Y-34000000D03*
X131000000Y-150000000D03*
X49000000Y-150000000D03*
D13*
X215000000Y-36000000D03*
X215000000Y-74000000D03*
X193000000Y-74000000D03*
X193000000Y-36000000D03*
X154000000Y-149000000D03*
X154000000Y-99000000D03*
D15*
X154000000Y-143000000D03*
X154000000Y-139000000D03*
D16*
X154000000Y-135000000D03*
D15*
X154000000Y-105000000D03*
D16*
X154000000Y-113000000D03*
D15*
X154000000Y-109000000D03*
D12*
X114000000Y-127000000D03*
X114000000Y-134000000D03*
D13*
X95000000Y-120000000D03*
X95000000Y-112000000D03*
D12*
X99000000Y-127000000D03*
X99000000Y-134000000D03*
D17*
X146000000Y-36000000D03*
D13*
X146000000Y-41080000D03*
X146000000Y-46160000D03*
X146000000Y-51240000D03*
D17*
X151080000Y-36000000D03*
D13*
X151080000Y-41080000D03*
X151080000Y-46160000D03*
X151080000Y-51240000D03*
D17*
X54000000Y-36000000D03*
D13*
X54000000Y-41080000D03*
X54000000Y-46160000D03*
X54000000Y-51240000D03*
X54000000Y-56320000D03*
X54000000Y-61400000D03*
D17*
X59080000Y-36000000D03*
D13*
X59080000Y-41080000D03*
X59080000Y-46160000D03*
X59080000Y-51240000D03*
X59080000Y-56320000D03*
X59080000Y-61400000D03*
D18*
X179000000Y-92000000D03*
X87000000Y-92000000D03*
D14*
X179000000Y-34000000D03*
X141000000Y-150000000D03*
X223000000Y-150000000D03*
X223000000Y-34000000D03*
D12*
X154000000Y-75000000D03*
X148000000Y-57000000D03*
X148000000Y-75000000D03*
D15*
X148000000Y-81000000D03*
X154000000Y-81000000D03*
D12*
X154000000Y-57000000D03*
X204000000Y-149000000D03*
X204000000Y-77000000D03*
D15*
X204000000Y-133000000D03*
D13*
X204000000Y-141000000D03*
D15*
X204000000Y-93000000D03*
D13*
X204000000Y-85000000D03*
D15*
X204000000Y-123000000D03*
X204000000Y-103000000D03*
D12*
X63000000Y-149000000D03*
X63000000Y-77000000D03*
D15*
X63000000Y-133000000D03*
D13*
X63000000Y-141000000D03*
D15*
X63000000Y-93000000D03*
D13*
X63000000Y-85000000D03*
D15*
X63000000Y-123000000D03*
X63000000Y-103000000D03*
D19*
X59080000Y-56320000D02*
X61201320Y-56320000D01*
X61201320Y-56320000D02*
X78999999Y-74118679D01*
X78999999Y-74118679D02*
X78999999Y-95999999D01*
X78999999Y-95999999D02*
X95000000Y-112000000D01*
X54000000Y-56320000D02*
X59080000Y-56320000D01*
X151080000Y-46160000D02*
X204840000Y-46160000D01*
X204840000Y-46160000D02*
X215000000Y-36000000D01*
X146000000Y-46160000D02*
X151080000Y-46160000D01*
X59080000Y-46160000D02*
X62160000Y-46160000D01*
X62160000Y-46160000D02*
X110000000Y-94000000D01*
X59080000Y-36000000D02*
X54000000Y-36000000D01*
X59080000Y-46160000D02*
X54000000Y-46160000D01*
X54000000Y-46160000D02*
X51878680Y-46160000D01*
X51878680Y-46160000D02*
X49499999Y-43781319D01*
X49499999Y-43781319D02*
X49499999Y-38919999D01*
X49499999Y-38919999D02*
X52419998Y-36000000D01*
X52419998Y-36000000D02*
X54000000Y-36000000D01*
X151080000Y-36000000D02*
X172119998Y-36000000D01*
X188999999Y-40000001D02*
X193000000Y-36000000D01*
X172119998Y-36000000D02*
X176119999Y-40000001D01*
X176119999Y-40000001D02*
X188999999Y-40000001D01*
X146000000Y-36000000D02*
X151080000Y-36000000D01*
M02*
