M48
INCH,TZ
T1C0.039
T2C0.047
T3C0.049
T4C0.051
T5C0.055
T6C0.059
T7C0.079
T8C0.130
T9C0.157
T10C0.217
%
G90
G05
T1
X60630Y-44094
X60630Y-52756
T2
X60630Y-40945
X60630Y-42520
X60630Y-54331
X60630Y-55906
T3
X58268Y-31890
X60630Y-31890
T4
X24803Y-36614
X24803Y-40551
X24803Y-48425
X24803Y-52362
X80315Y-36614
X80315Y-40551
X80315Y-48425
X80315Y-52362
T5
X21260Y-14173
X21260Y-16173
X21260Y-18173
X21260Y-20173
X21260Y-22173
X21260Y-24173
X57480Y-14173
X57480Y-16173
X57480Y-18173
X57480Y-20173
T6
X24803Y-33465
X24803Y-55512
X36614Y-43307
X36614Y-46457
X40551Y-29134
X43307Y-37402
X60630Y-38189
X60630Y-58661
X75984Y-14173
X75984Y-29921
X80315Y-33465
X80315Y-55512
X84646Y-14173
X84646Y-29921
T7
X24803Y-30315
X24803Y-58661
X80315Y-30315
X80315Y-58661
T8
X19291Y-58661
X34252Y-13386
X51575Y-13386
X51575Y-58661
X55512Y-58661
X70472Y-13386
X87795Y-13386
X87795Y-58661
T9
X33071Y-33858
X38583Y-28346
X38583Y-49213
X38583Y-51969
X41732Y-12992
X41732Y-20472
X44882Y-28346
X45276Y-49213
X45276Y-51969
X50394Y-33858
X58268Y-22441
X58268Y-29528
X60630Y-22441
X60630Y-29528
T10
X34252Y-36024
X70472Y-36024
T0
M30
