G04 #@! TF.FileFunction,Legend,Top*
%FSLAX46Y46*%
G04 Gerber Fmt 4.6, Leading zero omitted, Abs format (unit mm)*
G04 Created by KiCad (PCBNEW 4.0.0-stable) date Thursday, December 17, 2015 'AMt' 12:16:44 AM*
%MOMM*%
G01*
G04 APERTURE LIST*
%ADD10C,0.100000*%
%ADD11C,4.000000*%
%ADD12C,0.500000*%
%ADD13C,1.000000*%
%ADD14C,0.250000*%
%ADD15C,0.150000*%
%ADD16C,0.750000*%
G04 APERTURE END LIST*
D10*
D11*
X172000000Y-150000000D02*
X182000000Y-150000000D01*
X84000000Y-150000000D02*
X94000000Y-150000000D01*
D12*
X172604762Y-146142857D02*
X172604762Y-145761905D01*
X172700000Y-145571429D01*
X172890476Y-145380952D01*
X173271429Y-145285714D01*
X173938095Y-145285714D01*
X174319048Y-145380952D01*
X174509524Y-145571429D01*
X174604762Y-145761905D01*
X174604762Y-146142857D01*
X174509524Y-146333333D01*
X174319048Y-146523810D01*
X173938095Y-146619048D01*
X173271429Y-146619048D01*
X172890476Y-146523810D01*
X172700000Y-146333333D01*
X172604762Y-146142857D01*
X174509524Y-144523810D02*
X174604762Y-144333333D01*
X174604762Y-143952381D01*
X174509524Y-143761905D01*
X174319048Y-143666667D01*
X174223810Y-143666667D01*
X174033333Y-143761905D01*
X173938095Y-143952381D01*
X173938095Y-144238095D01*
X173842857Y-144428572D01*
X173652381Y-144523810D01*
X173557143Y-144523810D01*
X173366667Y-144428572D01*
X173271429Y-144238095D01*
X173271429Y-143952381D01*
X173366667Y-143761905D01*
X174509524Y-142047619D02*
X174604762Y-142238095D01*
X174604762Y-142619047D01*
X174509524Y-142809524D01*
X174319048Y-142904762D01*
X173557143Y-142904762D01*
X173366667Y-142809524D01*
X173271429Y-142619047D01*
X173271429Y-142238095D01*
X173366667Y-142047619D01*
X173557143Y-141952381D01*
X173747619Y-141952381D01*
X173938095Y-142904762D01*
X174033333Y-139666666D02*
X174033333Y-138714285D01*
X174604762Y-139857142D02*
X172604762Y-139190475D01*
X174604762Y-138523808D01*
X173271429Y-136999999D02*
X174604762Y-136999999D01*
X173271429Y-137857142D02*
X174319048Y-137857142D01*
X174509524Y-137761903D01*
X174604762Y-137571427D01*
X174604762Y-137285713D01*
X174509524Y-137095237D01*
X174414286Y-136999999D01*
X174604762Y-135190475D02*
X172604762Y-135190475D01*
X174509524Y-135190475D02*
X174604762Y-135380951D01*
X174604762Y-135761903D01*
X174509524Y-135952379D01*
X174414286Y-136047618D01*
X174223810Y-136142856D01*
X173652381Y-136142856D01*
X173461905Y-136047618D01*
X173366667Y-135952379D01*
X173271429Y-135761903D01*
X173271429Y-135380951D01*
X173366667Y-135190475D01*
X174604762Y-134238094D02*
X173271429Y-134238094D01*
X172604762Y-134238094D02*
X172700000Y-134333332D01*
X172795238Y-134238094D01*
X172700000Y-134142855D01*
X172604762Y-134238094D01*
X172795238Y-134238094D01*
X174604762Y-132999998D02*
X174509524Y-133190474D01*
X174414286Y-133285713D01*
X174223810Y-133380951D01*
X173652381Y-133380951D01*
X173461905Y-133285713D01*
X173366667Y-133190474D01*
X173271429Y-132999998D01*
X173271429Y-132714284D01*
X173366667Y-132523808D01*
X173461905Y-132428570D01*
X173652381Y-132333332D01*
X174223810Y-132333332D01*
X174414286Y-132428570D01*
X174509524Y-132523808D01*
X174604762Y-132714284D01*
X174604762Y-132999998D01*
X174604762Y-128999998D02*
X174604762Y-129952379D01*
X172604762Y-129952379D01*
X174604762Y-127476188D02*
X173557143Y-127476188D01*
X173366667Y-127571426D01*
X173271429Y-127761902D01*
X173271429Y-128142854D01*
X173366667Y-128333331D01*
X174509524Y-127476188D02*
X174604762Y-127666664D01*
X174604762Y-128142854D01*
X174509524Y-128333331D01*
X174319048Y-128428569D01*
X174128571Y-128428569D01*
X173938095Y-128333331D01*
X173842857Y-128142854D01*
X173842857Y-127666664D01*
X173747619Y-127476188D01*
X174604762Y-126523807D02*
X172604762Y-126523807D01*
X173366667Y-126523807D02*
X173271429Y-126333330D01*
X173271429Y-125952378D01*
X173366667Y-125761902D01*
X173461905Y-125666664D01*
X173652381Y-125571426D01*
X174223810Y-125571426D01*
X174414286Y-125666664D01*
X174509524Y-125761902D01*
X174604762Y-125952378D01*
X174604762Y-126333330D01*
X174509524Y-126523807D01*
X174509524Y-124809521D02*
X174604762Y-124619044D01*
X174604762Y-124238092D01*
X174509524Y-124047616D01*
X174319048Y-123952378D01*
X174223810Y-123952378D01*
X174033333Y-124047616D01*
X173938095Y-124238092D01*
X173938095Y-124523806D01*
X173842857Y-124714283D01*
X173652381Y-124809521D01*
X173557143Y-124809521D01*
X173366667Y-124714283D01*
X173271429Y-124523806D01*
X173271429Y-124238092D01*
X173366667Y-124047616D01*
X177809524Y-146619048D02*
X177904762Y-146333333D01*
X177904762Y-145857143D01*
X177809524Y-145666667D01*
X177714286Y-145571429D01*
X177523810Y-145476190D01*
X177333333Y-145476190D01*
X177142857Y-145571429D01*
X177047619Y-145666667D01*
X176952381Y-145857143D01*
X176857143Y-146238095D01*
X176761905Y-146428571D01*
X176666667Y-146523810D01*
X176476190Y-146619048D01*
X176285714Y-146619048D01*
X176095238Y-146523810D01*
X176000000Y-146428571D01*
X175904762Y-146238095D01*
X175904762Y-145761905D01*
X176000000Y-145476190D01*
X176571429Y-144619048D02*
X178571429Y-144619048D01*
X176666667Y-144619048D02*
X176571429Y-144428571D01*
X176571429Y-144047619D01*
X176666667Y-143857143D01*
X176761905Y-143761905D01*
X176952381Y-143666667D01*
X177523810Y-143666667D01*
X177714286Y-143761905D01*
X177809524Y-143857143D01*
X177904762Y-144047619D01*
X177904762Y-144428571D01*
X177809524Y-144619048D01*
X177809524Y-142047619D02*
X177904762Y-142238095D01*
X177904762Y-142619047D01*
X177809524Y-142809524D01*
X177619048Y-142904762D01*
X176857143Y-142904762D01*
X176666667Y-142809524D01*
X176571429Y-142619047D01*
X176571429Y-142238095D01*
X176666667Y-142047619D01*
X176857143Y-141952381D01*
X177047619Y-141952381D01*
X177238095Y-142904762D01*
X177809524Y-140333333D02*
X177904762Y-140523809D01*
X177904762Y-140904761D01*
X177809524Y-141095238D01*
X177619048Y-141190476D01*
X176857143Y-141190476D01*
X176666667Y-141095238D01*
X176571429Y-140904761D01*
X176571429Y-140523809D01*
X176666667Y-140333333D01*
X176857143Y-140238095D01*
X177047619Y-140238095D01*
X177238095Y-141190476D01*
X177904762Y-138523809D02*
X175904762Y-138523809D01*
X177809524Y-138523809D02*
X177904762Y-138714285D01*
X177904762Y-139095237D01*
X177809524Y-139285713D01*
X177714286Y-139380952D01*
X177523810Y-139476190D01*
X176952381Y-139476190D01*
X176761905Y-139380952D01*
X176666667Y-139285713D01*
X176571429Y-139095237D01*
X176571429Y-138714285D01*
X176666667Y-138523809D01*
X177809524Y-137666666D02*
X177904762Y-137476189D01*
X177904762Y-137095237D01*
X177809524Y-136904761D01*
X177619048Y-136809523D01*
X177523810Y-136809523D01*
X177333333Y-136904761D01*
X177238095Y-137095237D01*
X177238095Y-137380951D01*
X177142857Y-137571428D01*
X176952381Y-137666666D01*
X176857143Y-137666666D01*
X176666667Y-137571428D01*
X176571429Y-137380951D01*
X176571429Y-137095237D01*
X176666667Y-136904761D01*
X176571429Y-136238094D02*
X176571429Y-135476189D01*
X175904762Y-135952380D02*
X177619048Y-135952380D01*
X177809524Y-135857141D01*
X177904762Y-135666665D01*
X177904762Y-135476189D01*
X177809524Y-134047618D02*
X177904762Y-134238094D01*
X177904762Y-134619046D01*
X177809524Y-134809523D01*
X177619048Y-134904761D01*
X176857143Y-134904761D01*
X176666667Y-134809523D01*
X176571429Y-134619046D01*
X176571429Y-134238094D01*
X176666667Y-134047618D01*
X176857143Y-133952380D01*
X177047619Y-133952380D01*
X177238095Y-134904761D01*
X177904762Y-133095237D02*
X176571429Y-133095237D01*
X176952381Y-133095237D02*
X176761905Y-132999998D01*
X176666667Y-132904760D01*
X176571429Y-132714284D01*
X176571429Y-132523808D01*
X177809524Y-129476189D02*
X177904762Y-129666665D01*
X177904762Y-130047617D01*
X177809524Y-130238093D01*
X177714286Y-130333332D01*
X177523810Y-130428570D01*
X176952381Y-130428570D01*
X176761905Y-130333332D01*
X176666667Y-130238093D01*
X176571429Y-130047617D01*
X176571429Y-129666665D01*
X176666667Y-129476189D01*
X177904762Y-128619046D02*
X176571429Y-128619046D01*
X176952381Y-128619046D02*
X176761905Y-128523807D01*
X176666667Y-128428569D01*
X176571429Y-128238093D01*
X176571429Y-128047617D01*
X177904762Y-127095236D02*
X177809524Y-127285712D01*
X177714286Y-127380951D01*
X177523810Y-127476189D01*
X176952381Y-127476189D01*
X176761905Y-127380951D01*
X176666667Y-127285712D01*
X176571429Y-127095236D01*
X176571429Y-126809522D01*
X176666667Y-126619046D01*
X176761905Y-126523808D01*
X176952381Y-126428570D01*
X177523810Y-126428570D01*
X177714286Y-126523808D01*
X177809524Y-126619046D01*
X177904762Y-126809522D01*
X177904762Y-127095236D01*
X177809524Y-125666665D02*
X177904762Y-125476188D01*
X177904762Y-125095236D01*
X177809524Y-124904760D01*
X177619048Y-124809522D01*
X177523810Y-124809522D01*
X177333333Y-124904760D01*
X177238095Y-125095236D01*
X177238095Y-125380950D01*
X177142857Y-125571427D01*
X176952381Y-125666665D01*
X176857143Y-125666665D01*
X176666667Y-125571427D01*
X176571429Y-125380950D01*
X176571429Y-125095236D01*
X176666667Y-124904760D01*
X177809524Y-124047617D02*
X177904762Y-123857140D01*
X177904762Y-123476188D01*
X177809524Y-123285712D01*
X177619048Y-123190474D01*
X177523810Y-123190474D01*
X177333333Y-123285712D01*
X177238095Y-123476188D01*
X177238095Y-123761902D01*
X177142857Y-123952379D01*
X176952381Y-124047617D01*
X176857143Y-124047617D01*
X176666667Y-123952379D01*
X176571429Y-123761902D01*
X176571429Y-123476188D01*
X176666667Y-123285712D01*
X177904762Y-122047616D02*
X177809524Y-122238092D01*
X177714286Y-122333331D01*
X177523810Y-122428569D01*
X176952381Y-122428569D01*
X176761905Y-122333331D01*
X176666667Y-122238092D01*
X176571429Y-122047616D01*
X176571429Y-121761902D01*
X176666667Y-121571426D01*
X176761905Y-121476188D01*
X176952381Y-121380950D01*
X177523810Y-121380950D01*
X177714286Y-121476188D01*
X177809524Y-121571426D01*
X177904762Y-121761902D01*
X177904762Y-122047616D01*
X176571429Y-120714283D02*
X177904762Y-120238092D01*
X176571429Y-119761902D01*
X177809524Y-118238092D02*
X177904762Y-118428568D01*
X177904762Y-118809520D01*
X177809524Y-118999997D01*
X177619048Y-119095235D01*
X176857143Y-119095235D01*
X176666667Y-118999997D01*
X176571429Y-118809520D01*
X176571429Y-118428568D01*
X176666667Y-118238092D01*
X176857143Y-118142854D01*
X177047619Y-118142854D01*
X177238095Y-119095235D01*
X177904762Y-117285711D02*
X176571429Y-117285711D01*
X176952381Y-117285711D02*
X176761905Y-117190472D01*
X176666667Y-117095234D01*
X176571429Y-116904758D01*
X176571429Y-116714282D01*
X181204762Y-146523810D02*
X179204762Y-146523810D01*
X180157143Y-146523810D02*
X180157143Y-145380952D01*
X181204762Y-145380952D02*
X179204762Y-145380952D01*
X181204762Y-144428572D02*
X179871429Y-144428572D01*
X179204762Y-144428572D02*
X179300000Y-144523810D01*
X179395238Y-144428572D01*
X179300000Y-144333333D01*
X179204762Y-144428572D01*
X179395238Y-144428572D01*
X179871429Y-142619048D02*
X181490476Y-142619048D01*
X181680952Y-142714286D01*
X181776190Y-142809524D01*
X181871429Y-143000000D01*
X181871429Y-143285714D01*
X181776190Y-143476191D01*
X181109524Y-142619048D02*
X181204762Y-142809524D01*
X181204762Y-143190476D01*
X181109524Y-143380952D01*
X181014286Y-143476191D01*
X180823810Y-143571429D01*
X180252381Y-143571429D01*
X180061905Y-143476191D01*
X179966667Y-143380952D01*
X179871429Y-143190476D01*
X179871429Y-142809524D01*
X179966667Y-142619048D01*
X181204762Y-141666667D02*
X179204762Y-141666667D01*
X181204762Y-140809524D02*
X180157143Y-140809524D01*
X179966667Y-140904762D01*
X179871429Y-141095238D01*
X179871429Y-141380952D01*
X179966667Y-141571428D01*
X180061905Y-141666667D01*
X180442857Y-139857143D02*
X180442857Y-138333333D01*
X179871429Y-137380953D02*
X181871429Y-137380953D01*
X179966667Y-137380953D02*
X179871429Y-137190476D01*
X179871429Y-136809524D01*
X179966667Y-136619048D01*
X180061905Y-136523810D01*
X180252381Y-136428572D01*
X180823810Y-136428572D01*
X181014286Y-136523810D01*
X181109524Y-136619048D01*
X181204762Y-136809524D01*
X181204762Y-137190476D01*
X181109524Y-137380953D01*
X181204762Y-134714286D02*
X180157143Y-134714286D01*
X179966667Y-134809524D01*
X179871429Y-135000000D01*
X179871429Y-135380952D01*
X179966667Y-135571429D01*
X181109524Y-134714286D02*
X181204762Y-134904762D01*
X181204762Y-135380952D01*
X181109524Y-135571429D01*
X180919048Y-135666667D01*
X180728571Y-135666667D01*
X180538095Y-135571429D01*
X180442857Y-135380952D01*
X180442857Y-134904762D01*
X180347619Y-134714286D01*
X181109524Y-133857143D02*
X181204762Y-133666666D01*
X181204762Y-133285714D01*
X181109524Y-133095238D01*
X180919048Y-133000000D01*
X180823810Y-133000000D01*
X180633333Y-133095238D01*
X180538095Y-133285714D01*
X180538095Y-133571428D01*
X180442857Y-133761905D01*
X180252381Y-133857143D01*
X180157143Y-133857143D01*
X179966667Y-133761905D01*
X179871429Y-133571428D01*
X179871429Y-133285714D01*
X179966667Y-133095238D01*
X181109524Y-132238095D02*
X181204762Y-132047618D01*
X181204762Y-131666666D01*
X181109524Y-131476190D01*
X180919048Y-131380952D01*
X180823810Y-131380952D01*
X180633333Y-131476190D01*
X180538095Y-131666666D01*
X180538095Y-131952380D01*
X180442857Y-132142857D01*
X180252381Y-132238095D01*
X180157143Y-132238095D01*
X179966667Y-132142857D01*
X179871429Y-131952380D01*
X179871429Y-131666666D01*
X179966667Y-131476190D01*
X179871429Y-129285713D02*
X179871429Y-128523808D01*
X181204762Y-128999999D02*
X179490476Y-128999999D01*
X179300000Y-128904760D01*
X179204762Y-128714284D01*
X179204762Y-128523808D01*
X181204762Y-127857142D02*
X179871429Y-127857142D01*
X179204762Y-127857142D02*
X179300000Y-127952380D01*
X179395238Y-127857142D01*
X179300000Y-127761903D01*
X179204762Y-127857142D01*
X179395238Y-127857142D01*
X181204762Y-126619046D02*
X181109524Y-126809522D01*
X180919048Y-126904761D01*
X179204762Y-126904761D01*
X179871429Y-126142856D02*
X179871429Y-125380951D01*
X179204762Y-125857142D02*
X180919048Y-125857142D01*
X181109524Y-125761903D01*
X181204762Y-125571427D01*
X181204762Y-125380951D01*
X181109524Y-123952380D02*
X181204762Y-124142856D01*
X181204762Y-124523808D01*
X181109524Y-124714285D01*
X180919048Y-124809523D01*
X180157143Y-124809523D01*
X179966667Y-124714285D01*
X179871429Y-124523808D01*
X179871429Y-124142856D01*
X179966667Y-123952380D01*
X180157143Y-123857142D01*
X180347619Y-123857142D01*
X180538095Y-124809523D01*
X181204762Y-122999999D02*
X179871429Y-122999999D01*
X180252381Y-122999999D02*
X180061905Y-122904760D01*
X179966667Y-122809522D01*
X179871429Y-122619046D01*
X179871429Y-122428570D01*
X84604762Y-146142857D02*
X84604762Y-145761905D01*
X84700000Y-145571429D01*
X84890476Y-145380952D01*
X85271429Y-145285714D01*
X85938095Y-145285714D01*
X86319048Y-145380952D01*
X86509524Y-145571429D01*
X86604762Y-145761905D01*
X86604762Y-146142857D01*
X86509524Y-146333333D01*
X86319048Y-146523810D01*
X85938095Y-146619048D01*
X85271429Y-146619048D01*
X84890476Y-146523810D01*
X84700000Y-146333333D01*
X84604762Y-146142857D01*
X86509524Y-144523810D02*
X86604762Y-144333333D01*
X86604762Y-143952381D01*
X86509524Y-143761905D01*
X86319048Y-143666667D01*
X86223810Y-143666667D01*
X86033333Y-143761905D01*
X85938095Y-143952381D01*
X85938095Y-144238095D01*
X85842857Y-144428572D01*
X85652381Y-144523810D01*
X85557143Y-144523810D01*
X85366667Y-144428572D01*
X85271429Y-144238095D01*
X85271429Y-143952381D01*
X85366667Y-143761905D01*
X86509524Y-142047619D02*
X86604762Y-142238095D01*
X86604762Y-142619047D01*
X86509524Y-142809524D01*
X86319048Y-142904762D01*
X85557143Y-142904762D01*
X85366667Y-142809524D01*
X85271429Y-142619047D01*
X85271429Y-142238095D01*
X85366667Y-142047619D01*
X85557143Y-141952381D01*
X85747619Y-141952381D01*
X85938095Y-142904762D01*
X86033333Y-139666666D02*
X86033333Y-138714285D01*
X86604762Y-139857142D02*
X84604762Y-139190475D01*
X86604762Y-138523808D01*
X85271429Y-136999999D02*
X86604762Y-136999999D01*
X85271429Y-137857142D02*
X86319048Y-137857142D01*
X86509524Y-137761903D01*
X86604762Y-137571427D01*
X86604762Y-137285713D01*
X86509524Y-137095237D01*
X86414286Y-136999999D01*
X86604762Y-135190475D02*
X84604762Y-135190475D01*
X86509524Y-135190475D02*
X86604762Y-135380951D01*
X86604762Y-135761903D01*
X86509524Y-135952379D01*
X86414286Y-136047618D01*
X86223810Y-136142856D01*
X85652381Y-136142856D01*
X85461905Y-136047618D01*
X85366667Y-135952379D01*
X85271429Y-135761903D01*
X85271429Y-135380951D01*
X85366667Y-135190475D01*
X86604762Y-134238094D02*
X85271429Y-134238094D01*
X84604762Y-134238094D02*
X84700000Y-134333332D01*
X84795238Y-134238094D01*
X84700000Y-134142855D01*
X84604762Y-134238094D01*
X84795238Y-134238094D01*
X86604762Y-132999998D02*
X86509524Y-133190474D01*
X86414286Y-133285713D01*
X86223810Y-133380951D01*
X85652381Y-133380951D01*
X85461905Y-133285713D01*
X85366667Y-133190474D01*
X85271429Y-132999998D01*
X85271429Y-132714284D01*
X85366667Y-132523808D01*
X85461905Y-132428570D01*
X85652381Y-132333332D01*
X86223810Y-132333332D01*
X86414286Y-132428570D01*
X86509524Y-132523808D01*
X86604762Y-132714284D01*
X86604762Y-132999998D01*
X86604762Y-128999998D02*
X86604762Y-129952379D01*
X84604762Y-129952379D01*
X86604762Y-127476188D02*
X85557143Y-127476188D01*
X85366667Y-127571426D01*
X85271429Y-127761902D01*
X85271429Y-128142854D01*
X85366667Y-128333331D01*
X86509524Y-127476188D02*
X86604762Y-127666664D01*
X86604762Y-128142854D01*
X86509524Y-128333331D01*
X86319048Y-128428569D01*
X86128571Y-128428569D01*
X85938095Y-128333331D01*
X85842857Y-128142854D01*
X85842857Y-127666664D01*
X85747619Y-127476188D01*
X86604762Y-126523807D02*
X84604762Y-126523807D01*
X85366667Y-126523807D02*
X85271429Y-126333330D01*
X85271429Y-125952378D01*
X85366667Y-125761902D01*
X85461905Y-125666664D01*
X85652381Y-125571426D01*
X86223810Y-125571426D01*
X86414286Y-125666664D01*
X86509524Y-125761902D01*
X86604762Y-125952378D01*
X86604762Y-126333330D01*
X86509524Y-126523807D01*
X86509524Y-124809521D02*
X86604762Y-124619044D01*
X86604762Y-124238092D01*
X86509524Y-124047616D01*
X86319048Y-123952378D01*
X86223810Y-123952378D01*
X86033333Y-124047616D01*
X85938095Y-124238092D01*
X85938095Y-124523806D01*
X85842857Y-124714283D01*
X85652381Y-124809521D01*
X85557143Y-124809521D01*
X85366667Y-124714283D01*
X85271429Y-124523806D01*
X85271429Y-124238092D01*
X85366667Y-124047616D01*
X89809524Y-146619048D02*
X89904762Y-146333333D01*
X89904762Y-145857143D01*
X89809524Y-145666667D01*
X89714286Y-145571429D01*
X89523810Y-145476190D01*
X89333333Y-145476190D01*
X89142857Y-145571429D01*
X89047619Y-145666667D01*
X88952381Y-145857143D01*
X88857143Y-146238095D01*
X88761905Y-146428571D01*
X88666667Y-146523810D01*
X88476190Y-146619048D01*
X88285714Y-146619048D01*
X88095238Y-146523810D01*
X88000000Y-146428571D01*
X87904762Y-146238095D01*
X87904762Y-145761905D01*
X88000000Y-145476190D01*
X88571429Y-144619048D02*
X90571429Y-144619048D01*
X88666667Y-144619048D02*
X88571429Y-144428571D01*
X88571429Y-144047619D01*
X88666667Y-143857143D01*
X88761905Y-143761905D01*
X88952381Y-143666667D01*
X89523810Y-143666667D01*
X89714286Y-143761905D01*
X89809524Y-143857143D01*
X89904762Y-144047619D01*
X89904762Y-144428571D01*
X89809524Y-144619048D01*
X89809524Y-142047619D02*
X89904762Y-142238095D01*
X89904762Y-142619047D01*
X89809524Y-142809524D01*
X89619048Y-142904762D01*
X88857143Y-142904762D01*
X88666667Y-142809524D01*
X88571429Y-142619047D01*
X88571429Y-142238095D01*
X88666667Y-142047619D01*
X88857143Y-141952381D01*
X89047619Y-141952381D01*
X89238095Y-142904762D01*
X89809524Y-140333333D02*
X89904762Y-140523809D01*
X89904762Y-140904761D01*
X89809524Y-141095238D01*
X89619048Y-141190476D01*
X88857143Y-141190476D01*
X88666667Y-141095238D01*
X88571429Y-140904761D01*
X88571429Y-140523809D01*
X88666667Y-140333333D01*
X88857143Y-140238095D01*
X89047619Y-140238095D01*
X89238095Y-141190476D01*
X89904762Y-138523809D02*
X87904762Y-138523809D01*
X89809524Y-138523809D02*
X89904762Y-138714285D01*
X89904762Y-139095237D01*
X89809524Y-139285713D01*
X89714286Y-139380952D01*
X89523810Y-139476190D01*
X88952381Y-139476190D01*
X88761905Y-139380952D01*
X88666667Y-139285713D01*
X88571429Y-139095237D01*
X88571429Y-138714285D01*
X88666667Y-138523809D01*
X89809524Y-137666666D02*
X89904762Y-137476189D01*
X89904762Y-137095237D01*
X89809524Y-136904761D01*
X89619048Y-136809523D01*
X89523810Y-136809523D01*
X89333333Y-136904761D01*
X89238095Y-137095237D01*
X89238095Y-137380951D01*
X89142857Y-137571428D01*
X88952381Y-137666666D01*
X88857143Y-137666666D01*
X88666667Y-137571428D01*
X88571429Y-137380951D01*
X88571429Y-137095237D01*
X88666667Y-136904761D01*
X88571429Y-136238094D02*
X88571429Y-135476189D01*
X87904762Y-135952380D02*
X89619048Y-135952380D01*
X89809524Y-135857141D01*
X89904762Y-135666665D01*
X89904762Y-135476189D01*
X89809524Y-134047618D02*
X89904762Y-134238094D01*
X89904762Y-134619046D01*
X89809524Y-134809523D01*
X89619048Y-134904761D01*
X88857143Y-134904761D01*
X88666667Y-134809523D01*
X88571429Y-134619046D01*
X88571429Y-134238094D01*
X88666667Y-134047618D01*
X88857143Y-133952380D01*
X89047619Y-133952380D01*
X89238095Y-134904761D01*
X89904762Y-133095237D02*
X88571429Y-133095237D01*
X88952381Y-133095237D02*
X88761905Y-132999998D01*
X88666667Y-132904760D01*
X88571429Y-132714284D01*
X88571429Y-132523808D01*
X89809524Y-129476189D02*
X89904762Y-129666665D01*
X89904762Y-130047617D01*
X89809524Y-130238093D01*
X89714286Y-130333332D01*
X89523810Y-130428570D01*
X88952381Y-130428570D01*
X88761905Y-130333332D01*
X88666667Y-130238093D01*
X88571429Y-130047617D01*
X88571429Y-129666665D01*
X88666667Y-129476189D01*
X89904762Y-128619046D02*
X88571429Y-128619046D01*
X88952381Y-128619046D02*
X88761905Y-128523807D01*
X88666667Y-128428569D01*
X88571429Y-128238093D01*
X88571429Y-128047617D01*
X89904762Y-127095236D02*
X89809524Y-127285712D01*
X89714286Y-127380951D01*
X89523810Y-127476189D01*
X88952381Y-127476189D01*
X88761905Y-127380951D01*
X88666667Y-127285712D01*
X88571429Y-127095236D01*
X88571429Y-126809522D01*
X88666667Y-126619046D01*
X88761905Y-126523808D01*
X88952381Y-126428570D01*
X89523810Y-126428570D01*
X89714286Y-126523808D01*
X89809524Y-126619046D01*
X89904762Y-126809522D01*
X89904762Y-127095236D01*
X89809524Y-125666665D02*
X89904762Y-125476188D01*
X89904762Y-125095236D01*
X89809524Y-124904760D01*
X89619048Y-124809522D01*
X89523810Y-124809522D01*
X89333333Y-124904760D01*
X89238095Y-125095236D01*
X89238095Y-125380950D01*
X89142857Y-125571427D01*
X88952381Y-125666665D01*
X88857143Y-125666665D01*
X88666667Y-125571427D01*
X88571429Y-125380950D01*
X88571429Y-125095236D01*
X88666667Y-124904760D01*
X89809524Y-124047617D02*
X89904762Y-123857140D01*
X89904762Y-123476188D01*
X89809524Y-123285712D01*
X89619048Y-123190474D01*
X89523810Y-123190474D01*
X89333333Y-123285712D01*
X89238095Y-123476188D01*
X89238095Y-123761902D01*
X89142857Y-123952379D01*
X88952381Y-124047617D01*
X88857143Y-124047617D01*
X88666667Y-123952379D01*
X88571429Y-123761902D01*
X88571429Y-123476188D01*
X88666667Y-123285712D01*
X89904762Y-122047616D02*
X89809524Y-122238092D01*
X89714286Y-122333331D01*
X89523810Y-122428569D01*
X88952381Y-122428569D01*
X88761905Y-122333331D01*
X88666667Y-122238092D01*
X88571429Y-122047616D01*
X88571429Y-121761902D01*
X88666667Y-121571426D01*
X88761905Y-121476188D01*
X88952381Y-121380950D01*
X89523810Y-121380950D01*
X89714286Y-121476188D01*
X89809524Y-121571426D01*
X89904762Y-121761902D01*
X89904762Y-122047616D01*
X88571429Y-120714283D02*
X89904762Y-120238092D01*
X88571429Y-119761902D01*
X89809524Y-118238092D02*
X89904762Y-118428568D01*
X89904762Y-118809520D01*
X89809524Y-118999997D01*
X89619048Y-119095235D01*
X88857143Y-119095235D01*
X88666667Y-118999997D01*
X88571429Y-118809520D01*
X88571429Y-118428568D01*
X88666667Y-118238092D01*
X88857143Y-118142854D01*
X89047619Y-118142854D01*
X89238095Y-119095235D01*
X89904762Y-117285711D02*
X88571429Y-117285711D01*
X88952381Y-117285711D02*
X88761905Y-117190472D01*
X88666667Y-117095234D01*
X88571429Y-116904758D01*
X88571429Y-116714282D01*
X93204762Y-145571429D02*
X93204762Y-146523810D01*
X91204762Y-146523810D01*
X93204762Y-144619047D02*
X93109524Y-144809523D01*
X93014286Y-144904762D01*
X92823810Y-145000000D01*
X92252381Y-145000000D01*
X92061905Y-144904762D01*
X91966667Y-144809523D01*
X91871429Y-144619047D01*
X91871429Y-144333333D01*
X91966667Y-144142857D01*
X92061905Y-144047619D01*
X92252381Y-143952381D01*
X92823810Y-143952381D01*
X93014286Y-144047619D01*
X93109524Y-144142857D01*
X93204762Y-144333333D01*
X93204762Y-144619047D01*
X91871429Y-143285714D02*
X93204762Y-142904761D01*
X92252381Y-142523809D01*
X93204762Y-142142857D01*
X91871429Y-141761904D01*
X92442857Y-141000000D02*
X92442857Y-139476190D01*
X91871429Y-138523810D02*
X93871429Y-138523810D01*
X91966667Y-138523810D02*
X91871429Y-138333333D01*
X91871429Y-137952381D01*
X91966667Y-137761905D01*
X92061905Y-137666667D01*
X92252381Y-137571429D01*
X92823810Y-137571429D01*
X93014286Y-137666667D01*
X93109524Y-137761905D01*
X93204762Y-137952381D01*
X93204762Y-138333333D01*
X93109524Y-138523810D01*
X93204762Y-135857143D02*
X92157143Y-135857143D01*
X91966667Y-135952381D01*
X91871429Y-136142857D01*
X91871429Y-136523809D01*
X91966667Y-136714286D01*
X93109524Y-135857143D02*
X93204762Y-136047619D01*
X93204762Y-136523809D01*
X93109524Y-136714286D01*
X92919048Y-136809524D01*
X92728571Y-136809524D01*
X92538095Y-136714286D01*
X92442857Y-136523809D01*
X92442857Y-136047619D01*
X92347619Y-135857143D01*
X93109524Y-135000000D02*
X93204762Y-134809523D01*
X93204762Y-134428571D01*
X93109524Y-134238095D01*
X92919048Y-134142857D01*
X92823810Y-134142857D01*
X92633333Y-134238095D01*
X92538095Y-134428571D01*
X92538095Y-134714285D01*
X92442857Y-134904762D01*
X92252381Y-135000000D01*
X92157143Y-135000000D01*
X91966667Y-134904762D01*
X91871429Y-134714285D01*
X91871429Y-134428571D01*
X91966667Y-134238095D01*
X93109524Y-133380952D02*
X93204762Y-133190475D01*
X93204762Y-132809523D01*
X93109524Y-132619047D01*
X92919048Y-132523809D01*
X92823810Y-132523809D01*
X92633333Y-132619047D01*
X92538095Y-132809523D01*
X92538095Y-133095237D01*
X92442857Y-133285714D01*
X92252381Y-133380952D01*
X92157143Y-133380952D01*
X91966667Y-133285714D01*
X91871429Y-133095237D01*
X91871429Y-132809523D01*
X91966667Y-132619047D01*
X91871429Y-130428570D02*
X91871429Y-129666665D01*
X93204762Y-130142856D02*
X91490476Y-130142856D01*
X91300000Y-130047617D01*
X91204762Y-129857141D01*
X91204762Y-129666665D01*
X93204762Y-128999999D02*
X91871429Y-128999999D01*
X91204762Y-128999999D02*
X91300000Y-129095237D01*
X91395238Y-128999999D01*
X91300000Y-128904760D01*
X91204762Y-128999999D01*
X91395238Y-128999999D01*
X93204762Y-127761903D02*
X93109524Y-127952379D01*
X92919048Y-128047618D01*
X91204762Y-128047618D01*
X91871429Y-127285713D02*
X91871429Y-126523808D01*
X91204762Y-126999999D02*
X92919048Y-126999999D01*
X93109524Y-126904760D01*
X93204762Y-126714284D01*
X93204762Y-126523808D01*
X93109524Y-125095237D02*
X93204762Y-125285713D01*
X93204762Y-125666665D01*
X93109524Y-125857142D01*
X92919048Y-125952380D01*
X92157143Y-125952380D01*
X91966667Y-125857142D01*
X91871429Y-125666665D01*
X91871429Y-125285713D01*
X91966667Y-125095237D01*
X92157143Y-124999999D01*
X92347619Y-124999999D01*
X92538095Y-125952380D01*
X93204762Y-124142856D02*
X91871429Y-124142856D01*
X92252381Y-124142856D02*
X92061905Y-124047617D01*
X91966667Y-123952379D01*
X91871429Y-123761903D01*
X91871429Y-123571427D01*
X153190476Y-50404762D02*
X154333333Y-50404762D01*
X153761905Y-52404762D02*
X153761905Y-50404762D01*
X154809524Y-50404762D02*
X155285715Y-52404762D01*
X155666667Y-50976190D01*
X156047620Y-52404762D01*
X156523810Y-50404762D01*
X157285714Y-51357143D02*
X157952381Y-51357143D01*
X158238095Y-52404762D02*
X157285714Y-52404762D01*
X157285714Y-50404762D01*
X158238095Y-50404762D01*
X159095238Y-51357143D02*
X159761905Y-51357143D01*
X160047619Y-52404762D02*
X159095238Y-52404762D01*
X159095238Y-50404762D01*
X160047619Y-50404762D01*
X160619048Y-50404762D02*
X161761905Y-50404762D01*
X161190477Y-52404762D02*
X161190477Y-50404762D01*
X162428572Y-51357143D02*
X163095239Y-51357143D01*
X163380953Y-52404762D02*
X162428572Y-52404762D01*
X162428572Y-50404762D01*
X163380953Y-50404762D01*
X165380954Y-52404762D02*
X164714287Y-51452381D01*
X164238096Y-52404762D02*
X164238096Y-50404762D01*
X165000001Y-50404762D01*
X165190477Y-50500000D01*
X165285716Y-50595238D01*
X165380954Y-50785714D01*
X165380954Y-51071429D01*
X165285716Y-51261905D01*
X165190477Y-51357143D01*
X165000001Y-51452381D01*
X164238096Y-51452381D01*
X166238096Y-51642857D02*
X167761906Y-51642857D01*
X153190476Y-45404762D02*
X154333333Y-45404762D01*
X153761905Y-47404762D02*
X153761905Y-45404762D01*
X154809524Y-45404762D02*
X155285715Y-47404762D01*
X155666667Y-45976190D01*
X156047620Y-47404762D01*
X156523810Y-45404762D01*
X157285714Y-46357143D02*
X157952381Y-46357143D01*
X158238095Y-47404762D02*
X157285714Y-47404762D01*
X157285714Y-45404762D01*
X158238095Y-45404762D01*
X159095238Y-46357143D02*
X159761905Y-46357143D01*
X160047619Y-47404762D02*
X159095238Y-47404762D01*
X159095238Y-45404762D01*
X160047619Y-45404762D01*
X160619048Y-45404762D02*
X161761905Y-45404762D01*
X161190477Y-47404762D02*
X161190477Y-45404762D01*
X162428572Y-46357143D02*
X163095239Y-46357143D01*
X163380953Y-47404762D02*
X162428572Y-47404762D01*
X162428572Y-45404762D01*
X163380953Y-45404762D01*
X165380954Y-47404762D02*
X164714287Y-46452381D01*
X164238096Y-47404762D02*
X164238096Y-45404762D01*
X165000001Y-45404762D01*
X165190477Y-45500000D01*
X165285716Y-45595238D01*
X165380954Y-45785714D01*
X165380954Y-46071429D01*
X165285716Y-46261905D01*
X165190477Y-46357143D01*
X165000001Y-46452381D01*
X164238096Y-46452381D01*
X166238096Y-46642857D02*
X167761906Y-46642857D01*
X167000001Y-47404762D02*
X167000001Y-45880952D01*
X153476190Y-42404762D02*
X153476190Y-40404762D01*
X154428571Y-42404762D02*
X154428571Y-40404762D01*
X155571429Y-42404762D01*
X155571429Y-40404762D01*
X156523809Y-42404762D02*
X156523809Y-40404762D01*
X157285714Y-40404762D01*
X157476190Y-40500000D01*
X157571429Y-40595238D01*
X157666667Y-40785714D01*
X157666667Y-41071429D01*
X157571429Y-41261905D01*
X157476190Y-41357143D01*
X157285714Y-41452381D01*
X156523809Y-41452381D01*
X158523809Y-40404762D02*
X158523809Y-42023810D01*
X158619048Y-42214286D01*
X158714286Y-42309524D01*
X158904762Y-42404762D01*
X159285714Y-42404762D01*
X159476190Y-42309524D01*
X159571429Y-42214286D01*
X159666667Y-42023810D01*
X159666667Y-40404762D01*
X160333333Y-40404762D02*
X161476190Y-40404762D01*
X160904762Y-42404762D02*
X160904762Y-40404762D01*
X162142857Y-41642857D02*
X163666667Y-41642857D01*
X153476190Y-37404762D02*
X153476190Y-35404762D01*
X154428571Y-37404762D02*
X154428571Y-35404762D01*
X155571429Y-37404762D01*
X155571429Y-35404762D01*
X156523809Y-37404762D02*
X156523809Y-35404762D01*
X157285714Y-35404762D01*
X157476190Y-35500000D01*
X157571429Y-35595238D01*
X157666667Y-35785714D01*
X157666667Y-36071429D01*
X157571429Y-36261905D01*
X157476190Y-36357143D01*
X157285714Y-36452381D01*
X156523809Y-36452381D01*
X158523809Y-35404762D02*
X158523809Y-37023810D01*
X158619048Y-37214286D01*
X158714286Y-37309524D01*
X158904762Y-37404762D01*
X159285714Y-37404762D01*
X159476190Y-37309524D01*
X159571429Y-37214286D01*
X159666667Y-37023810D01*
X159666667Y-35404762D01*
X160333333Y-35404762D02*
X161476190Y-35404762D01*
X160904762Y-37404762D02*
X160904762Y-35404762D01*
X162142857Y-36642857D02*
X163666667Y-36642857D01*
X162904762Y-37404762D02*
X162904762Y-35880952D01*
X61285714Y-59904762D02*
X61761905Y-61904762D01*
X62142857Y-60476190D01*
X62523810Y-61904762D01*
X63000000Y-59904762D01*
X64142857Y-59904762D02*
X64523809Y-59904762D01*
X64714285Y-60000000D01*
X64904762Y-60190476D01*
X65000000Y-60571429D01*
X65000000Y-61238095D01*
X64904762Y-61619048D01*
X64714285Y-61809524D01*
X64523809Y-61904762D01*
X64142857Y-61904762D01*
X63952381Y-61809524D01*
X63761904Y-61619048D01*
X63666666Y-61238095D01*
X63666666Y-60571429D01*
X63761904Y-60190476D01*
X63952381Y-60000000D01*
X64142857Y-59904762D01*
X66238095Y-59904762D02*
X66619047Y-59904762D01*
X66809523Y-60000000D01*
X67000000Y-60190476D01*
X67095238Y-60571429D01*
X67095238Y-61238095D01*
X67000000Y-61619048D01*
X66809523Y-61809524D01*
X66619047Y-61904762D01*
X66238095Y-61904762D01*
X66047619Y-61809524D01*
X65857142Y-61619048D01*
X65761904Y-61238095D01*
X65761904Y-60571429D01*
X65857142Y-60190476D01*
X66047619Y-60000000D01*
X66238095Y-59904762D01*
X68619047Y-60857143D02*
X67952380Y-60857143D01*
X67952380Y-61904762D02*
X67952380Y-59904762D01*
X68904761Y-59904762D01*
X69666666Y-60857143D02*
X70333333Y-60857143D01*
X70619047Y-61904762D02*
X69666666Y-61904762D01*
X69666666Y-59904762D01*
X70619047Y-59904762D01*
X72619048Y-61904762D02*
X71952381Y-60952381D01*
X71476190Y-61904762D02*
X71476190Y-59904762D01*
X72238095Y-59904762D01*
X72428571Y-60000000D01*
X72523810Y-60095238D01*
X72619048Y-60285714D01*
X72619048Y-60571429D01*
X72523810Y-60761905D01*
X72428571Y-60857143D01*
X72238095Y-60952381D01*
X71476190Y-60952381D01*
X73476190Y-61142857D02*
X75000000Y-61142857D01*
X61285714Y-54904762D02*
X61761905Y-56904762D01*
X62142857Y-55476190D01*
X62523810Y-56904762D01*
X63000000Y-54904762D01*
X64142857Y-54904762D02*
X64523809Y-54904762D01*
X64714285Y-55000000D01*
X64904762Y-55190476D01*
X65000000Y-55571429D01*
X65000000Y-56238095D01*
X64904762Y-56619048D01*
X64714285Y-56809524D01*
X64523809Y-56904762D01*
X64142857Y-56904762D01*
X63952381Y-56809524D01*
X63761904Y-56619048D01*
X63666666Y-56238095D01*
X63666666Y-55571429D01*
X63761904Y-55190476D01*
X63952381Y-55000000D01*
X64142857Y-54904762D01*
X66238095Y-54904762D02*
X66619047Y-54904762D01*
X66809523Y-55000000D01*
X67000000Y-55190476D01*
X67095238Y-55571429D01*
X67095238Y-56238095D01*
X67000000Y-56619048D01*
X66809523Y-56809524D01*
X66619047Y-56904762D01*
X66238095Y-56904762D01*
X66047619Y-56809524D01*
X65857142Y-56619048D01*
X65761904Y-56238095D01*
X65761904Y-55571429D01*
X65857142Y-55190476D01*
X66047619Y-55000000D01*
X66238095Y-54904762D01*
X68619047Y-55857143D02*
X67952380Y-55857143D01*
X67952380Y-56904762D02*
X67952380Y-54904762D01*
X68904761Y-54904762D01*
X69666666Y-55857143D02*
X70333333Y-55857143D01*
X70619047Y-56904762D02*
X69666666Y-56904762D01*
X69666666Y-54904762D01*
X70619047Y-54904762D01*
X72619048Y-56904762D02*
X71952381Y-55952381D01*
X71476190Y-56904762D02*
X71476190Y-54904762D01*
X72238095Y-54904762D01*
X72428571Y-55000000D01*
X72523810Y-55095238D01*
X72619048Y-55285714D01*
X72619048Y-55571429D01*
X72523810Y-55761905D01*
X72428571Y-55857143D01*
X72238095Y-55952381D01*
X71476190Y-55952381D01*
X73476190Y-56142857D02*
X75000000Y-56142857D01*
X74238095Y-56904762D02*
X74238095Y-55380952D01*
X61476190Y-51904762D02*
X61476190Y-49904762D01*
X62428571Y-51904762D02*
X62428571Y-49904762D01*
X63571429Y-51904762D01*
X63571429Y-49904762D01*
X64523809Y-51904762D02*
X64523809Y-49904762D01*
X65285714Y-49904762D01*
X65476190Y-50000000D01*
X65571429Y-50095238D01*
X65666667Y-50285714D01*
X65666667Y-50571429D01*
X65571429Y-50761905D01*
X65476190Y-50857143D01*
X65285714Y-50952381D01*
X64523809Y-50952381D01*
X66523809Y-49904762D02*
X66523809Y-51523810D01*
X66619048Y-51714286D01*
X66714286Y-51809524D01*
X66904762Y-51904762D01*
X67285714Y-51904762D01*
X67476190Y-51809524D01*
X67571429Y-51714286D01*
X67666667Y-51523810D01*
X67666667Y-49904762D01*
X68333333Y-49904762D02*
X69476190Y-49904762D01*
X68904762Y-51904762D02*
X68904762Y-49904762D01*
X70142857Y-51142857D02*
X71666667Y-51142857D01*
X61476190Y-41904762D02*
X61476190Y-39904762D01*
X62428571Y-41904762D02*
X62428571Y-39904762D01*
X63571429Y-41904762D01*
X63571429Y-39904762D01*
X64523809Y-41904762D02*
X64523809Y-39904762D01*
X65285714Y-39904762D01*
X65476190Y-40000000D01*
X65571429Y-40095238D01*
X65666667Y-40285714D01*
X65666667Y-40571429D01*
X65571429Y-40761905D01*
X65476190Y-40857143D01*
X65285714Y-40952381D01*
X64523809Y-40952381D01*
X66523809Y-39904762D02*
X66523809Y-41523810D01*
X66619048Y-41714286D01*
X66714286Y-41809524D01*
X66904762Y-41904762D01*
X67285714Y-41904762D01*
X67476190Y-41809524D01*
X67571429Y-41714286D01*
X67666667Y-41523810D01*
X67666667Y-39904762D01*
X68333333Y-39904762D02*
X69476190Y-39904762D01*
X68904762Y-41904762D02*
X68904762Y-39904762D01*
X70142857Y-41142857D02*
X71666667Y-41142857D01*
X61476190Y-46904762D02*
X61476190Y-44904762D01*
X62428571Y-46904762D02*
X62428571Y-44904762D01*
X63571429Y-46904762D01*
X63571429Y-44904762D01*
X64523809Y-46904762D02*
X64523809Y-44904762D01*
X65285714Y-44904762D01*
X65476190Y-45000000D01*
X65571429Y-45095238D01*
X65666667Y-45285714D01*
X65666667Y-45571429D01*
X65571429Y-45761905D01*
X65476190Y-45857143D01*
X65285714Y-45952381D01*
X64523809Y-45952381D01*
X66523809Y-44904762D02*
X66523809Y-46523810D01*
X66619048Y-46714286D01*
X66714286Y-46809524D01*
X66904762Y-46904762D01*
X67285714Y-46904762D01*
X67476190Y-46809524D01*
X67571429Y-46714286D01*
X67666667Y-46523810D01*
X67666667Y-44904762D01*
X68333333Y-44904762D02*
X69476190Y-44904762D01*
X68904762Y-46904762D02*
X68904762Y-44904762D01*
X70142857Y-46142857D02*
X71666667Y-46142857D01*
X70904762Y-46904762D02*
X70904762Y-45380952D01*
X61476190Y-36904762D02*
X61476190Y-34904762D01*
X62428571Y-36904762D02*
X62428571Y-34904762D01*
X63571429Y-36904762D01*
X63571429Y-34904762D01*
X64523809Y-36904762D02*
X64523809Y-34904762D01*
X65285714Y-34904762D01*
X65476190Y-35000000D01*
X65571429Y-35095238D01*
X65666667Y-35285714D01*
X65666667Y-35571429D01*
X65571429Y-35761905D01*
X65476190Y-35857143D01*
X65285714Y-35952381D01*
X64523809Y-35952381D01*
X66523809Y-34904762D02*
X66523809Y-36523810D01*
X66619048Y-36714286D01*
X66714286Y-36809524D01*
X66904762Y-36904762D01*
X67285714Y-36904762D01*
X67476190Y-36809524D01*
X67571429Y-36714286D01*
X67666667Y-36523810D01*
X67666667Y-34904762D01*
X68333333Y-34904762D02*
X69476190Y-34904762D01*
X68904762Y-36904762D02*
X68904762Y-34904762D01*
X70142857Y-36142857D02*
X71666667Y-36142857D01*
X70904762Y-36904762D02*
X70904762Y-35380952D01*
X166857143Y-63254762D02*
X167047619Y-63254762D01*
X167238095Y-63350000D01*
X167333333Y-63445238D01*
X167428571Y-63635714D01*
X167523810Y-64016667D01*
X167523810Y-64492857D01*
X167428571Y-64873810D01*
X167333333Y-65064286D01*
X167238095Y-65159524D01*
X167047619Y-65254762D01*
X166857143Y-65254762D01*
X166666667Y-65159524D01*
X166571429Y-65064286D01*
X166476190Y-64873810D01*
X166380952Y-64492857D01*
X166380952Y-64016667D01*
X166476190Y-63635714D01*
X166571429Y-63445238D01*
X166666667Y-63350000D01*
X166857143Y-63254762D01*
X168380952Y-65064286D02*
X168476191Y-65159524D01*
X168380952Y-65254762D01*
X168285714Y-65159524D01*
X168380952Y-65064286D01*
X168380952Y-65254762D01*
X169238095Y-63445238D02*
X169333333Y-63350000D01*
X169523810Y-63254762D01*
X170000000Y-63254762D01*
X170190476Y-63350000D01*
X170285714Y-63445238D01*
X170380953Y-63635714D01*
X170380953Y-63826190D01*
X170285714Y-64111905D01*
X169142857Y-65254762D01*
X170380953Y-65254762D01*
X172190476Y-63254762D02*
X171238095Y-63254762D01*
X171142857Y-64207143D01*
X171238095Y-64111905D01*
X171428572Y-64016667D01*
X171904762Y-64016667D01*
X172095238Y-64111905D01*
X172190476Y-64207143D01*
X172285715Y-64397619D01*
X172285715Y-64873810D01*
X172190476Y-65064286D01*
X172095238Y-65159524D01*
X171904762Y-65254762D01*
X171428572Y-65254762D01*
X171238095Y-65159524D01*
X171142857Y-65064286D01*
X173142857Y-65254762D02*
X173142857Y-63921429D01*
X173142857Y-64111905D02*
X173238096Y-64016667D01*
X173428572Y-63921429D01*
X173714286Y-63921429D01*
X173904762Y-64016667D01*
X174000000Y-64207143D01*
X174000000Y-65254762D01*
X174000000Y-64207143D02*
X174095238Y-64016667D01*
X174285715Y-63921429D01*
X174571429Y-63921429D01*
X174761905Y-64016667D01*
X174857143Y-64207143D01*
X174857143Y-65254762D01*
X175809524Y-65254762D02*
X175809524Y-63254762D01*
X175809524Y-64207143D02*
X176952382Y-64207143D01*
X176952382Y-65254762D02*
X176952382Y-63254762D01*
X166380952Y-66745238D02*
X166476190Y-66650000D01*
X166666667Y-66554762D01*
X167142857Y-66554762D01*
X167333333Y-66650000D01*
X167428571Y-66745238D01*
X167523810Y-66935714D01*
X167523810Y-67126190D01*
X167428571Y-67411905D01*
X166285714Y-68554762D01*
X167523810Y-68554762D01*
X168761905Y-66554762D02*
X168952381Y-66554762D01*
X169142857Y-66650000D01*
X169238095Y-66745238D01*
X169333333Y-66935714D01*
X169428572Y-67316667D01*
X169428572Y-67792857D01*
X169333333Y-68173810D01*
X169238095Y-68364286D01*
X169142857Y-68459524D01*
X168952381Y-68554762D01*
X168761905Y-68554762D01*
X168571429Y-68459524D01*
X168476191Y-68364286D01*
X168380952Y-68173810D01*
X168285714Y-67792857D01*
X168285714Y-67316667D01*
X168380952Y-66935714D01*
X168476191Y-66745238D01*
X168571429Y-66650000D01*
X168761905Y-66554762D01*
X170190476Y-67983333D02*
X171142857Y-67983333D01*
X170000000Y-68554762D02*
X170666667Y-66554762D01*
X171333334Y-68554762D01*
X171809524Y-66554762D02*
X172285715Y-68554762D01*
X172666667Y-67126190D01*
X173047620Y-68554762D01*
X173523810Y-66554762D01*
X175333334Y-66650000D02*
X175142857Y-66554762D01*
X174857143Y-66554762D01*
X174571429Y-66650000D01*
X174380953Y-66840476D01*
X174285714Y-67030952D01*
X174190476Y-67411905D01*
X174190476Y-67697619D01*
X174285714Y-68078571D01*
X174380953Y-68269048D01*
X174571429Y-68459524D01*
X174857143Y-68554762D01*
X175047619Y-68554762D01*
X175333334Y-68459524D01*
X175428572Y-68364286D01*
X175428572Y-67697619D01*
X175047619Y-67697619D01*
D13*
X167000000Y-144500000D02*
X167000000Y-101500000D01*
X141000000Y-144500000D02*
X141000000Y-101500000D01*
X141000000Y-101500000D02*
X167000000Y-101500000D01*
X141000000Y-144500000D02*
X167000000Y-144500000D01*
D12*
X151500000Y-33200000D02*
X137800000Y-33200000D01*
D14*
X137600000Y-33500000D02*
X151700000Y-33500000D01*
X140100000Y-38540000D02*
X137600000Y-38540000D01*
X140100000Y-32870000D02*
X140100000Y-54370000D01*
X151720000Y-32870000D02*
X137600000Y-32870000D01*
X151720000Y-54370000D02*
X137600000Y-54370000D01*
X151720000Y-32870000D02*
X151720000Y-54370000D01*
X137600000Y-32870000D02*
X137600000Y-54370000D01*
X140100000Y-43640000D02*
X137600000Y-43640000D01*
X140100000Y-48700000D02*
X137600000Y-48700000D01*
D12*
X59500000Y-33200000D02*
X45800000Y-33200000D01*
D14*
X45600000Y-33500000D02*
X59700000Y-33500000D01*
X48100000Y-38540000D02*
X45600000Y-38540000D01*
X48100000Y-32870000D02*
X48100000Y-64530000D01*
X59720000Y-32870000D02*
X45600000Y-32870000D01*
X59720000Y-64530000D02*
X45600000Y-64530000D01*
X59720000Y-32870000D02*
X59720000Y-64530000D01*
X45600000Y-32870000D02*
X45600000Y-64530000D01*
X48100000Y-43640000D02*
X45600000Y-43640000D01*
X48100000Y-48700000D02*
X45600000Y-48700000D01*
X48100000Y-53780000D02*
X45600000Y-53780000D01*
X48100000Y-58860000D02*
X45600000Y-58860000D01*
D13*
X164500000Y-74000000D02*
X164500000Y-58000000D01*
X137500000Y-74000000D02*
X137500000Y-58000000D01*
X164500000Y-58000000D02*
X137500000Y-58000000D01*
X164500000Y-74000000D02*
X137500000Y-74000000D01*
X120000000Y-64000000D02*
G75*
G03X120000000Y-64000000I-14000000J0D01*
G01*
X135000000Y-64000000D02*
G75*
G03X135000000Y-64000000I-29000000J0D01*
G01*
X211000000Y-40000000D02*
X211000000Y-72000000D01*
X219000000Y-40000000D02*
X219000000Y-72000000D01*
X219000000Y-72000000D02*
X211000000Y-72000000D01*
X219000000Y-40000000D02*
X211000000Y-40000000D01*
X197000000Y-72000000D02*
X197000000Y-40000000D01*
X189000000Y-72000000D02*
X189000000Y-40000000D01*
X189000000Y-40000000D02*
X197000000Y-40000000D01*
X189000000Y-72000000D02*
X197000000Y-72000000D01*
X99000000Y-106000000D02*
X114000000Y-106000000D01*
X99000000Y-151000000D02*
X114000000Y-151000000D01*
X99000000Y-106000000D02*
X99000000Y-151000000D01*
X114000000Y-106000000D02*
X114000000Y-151000000D01*
X222000000Y-144500000D02*
X222000000Y-81500000D01*
X186000000Y-144500000D02*
X186000000Y-81500000D01*
X186000000Y-81500000D02*
X222000000Y-81500000D01*
X186000000Y-144500000D02*
X222000000Y-144500000D01*
X81000000Y-144500000D02*
X81000000Y-81500000D01*
X45000000Y-144500000D02*
X45000000Y-81500000D01*
X45000000Y-81500000D02*
X81000000Y-81500000D01*
X45000000Y-144500000D02*
X81000000Y-144500000D01*
X155428571Y-123666667D02*
X155619048Y-123857143D01*
X155809524Y-124428572D01*
X155809524Y-124809524D01*
X155619048Y-125380952D01*
X155238095Y-125761905D01*
X154857143Y-125952381D01*
X154095238Y-126142857D01*
X153523810Y-126142857D01*
X152761905Y-125952381D01*
X152380952Y-125761905D01*
X152000000Y-125380952D01*
X151809524Y-124809524D01*
X151809524Y-124428572D01*
X152000000Y-123857143D01*
X152190476Y-123666667D01*
X155809524Y-119857143D02*
X155809524Y-122142857D01*
X155809524Y-121000000D02*
X151809524Y-121000000D01*
X152380952Y-121380952D01*
X152761905Y-121761905D01*
X152952381Y-122142857D01*
D12*
X169095238Y-126761905D02*
X169000000Y-126666667D01*
X168904762Y-126476190D01*
X168904762Y-126000000D01*
X169000000Y-125809524D01*
X169095238Y-125714286D01*
X169285714Y-125619047D01*
X169476190Y-125619047D01*
X169761905Y-125714286D01*
X170904762Y-126857143D01*
X170904762Y-125619047D01*
X170714286Y-124761905D02*
X170809524Y-124666666D01*
X170904762Y-124761905D01*
X170809524Y-124857143D01*
X170714286Y-124761905D01*
X170904762Y-124761905D01*
X169095238Y-123904762D02*
X169000000Y-123809524D01*
X168904762Y-123619047D01*
X168904762Y-123142857D01*
X169000000Y-122952381D01*
X169095238Y-122857143D01*
X169285714Y-122761904D01*
X169476190Y-122761904D01*
X169761905Y-122857143D01*
X170904762Y-124000000D01*
X170904762Y-122761904D01*
X169571429Y-121047619D02*
X170904762Y-121047619D01*
X169571429Y-121904762D02*
X170619048Y-121904762D01*
X170809524Y-121809523D01*
X170904762Y-121619047D01*
X170904762Y-121333333D01*
X170809524Y-121142857D01*
X170714286Y-121047619D01*
X169857143Y-119428571D02*
X169857143Y-120095238D01*
X170904762Y-120095238D02*
X168904762Y-120095238D01*
X168904762Y-119142857D01*
D15*
D13*
X150333334Y-67809524D02*
X148428572Y-67809524D01*
X148428572Y-63809524D01*
X153761905Y-67809524D02*
X151476191Y-67809524D01*
X152619048Y-67809524D02*
X152619048Y-63809524D01*
X152238096Y-64380952D01*
X151857143Y-64761905D01*
X151476191Y-64952381D01*
X105333334Y-85809524D02*
X103428572Y-85809524D01*
X103428572Y-81809524D01*
X106476191Y-82190476D02*
X106666667Y-82000000D01*
X107047619Y-81809524D01*
X108000000Y-81809524D01*
X108380953Y-82000000D01*
X108571429Y-82190476D01*
X108761905Y-82571429D01*
X108761905Y-82952381D01*
X108571429Y-83523810D01*
X106285715Y-85809524D01*
X108761905Y-85809524D01*
D12*
X97095238Y-64904762D02*
X95952380Y-64904762D01*
X96523809Y-64904762D02*
X96523809Y-62904762D01*
X96333333Y-63190476D01*
X96142857Y-63380952D01*
X95952380Y-63476190D01*
X97952380Y-64714286D02*
X98047619Y-64809524D01*
X97952380Y-64904762D01*
X97857142Y-64809524D01*
X97952380Y-64714286D01*
X97952380Y-64904762D01*
X99857142Y-62904762D02*
X98904761Y-62904762D01*
X98809523Y-63857143D01*
X98904761Y-63761905D01*
X99095238Y-63666667D01*
X99571428Y-63666667D01*
X99761904Y-63761905D01*
X99857142Y-63857143D01*
X99952381Y-64047619D01*
X99952381Y-64523810D01*
X99857142Y-64714286D01*
X99761904Y-64809524D01*
X99571428Y-64904762D01*
X99095238Y-64904762D01*
X98904761Y-64809524D01*
X98809523Y-64714286D01*
X100809523Y-64904762D02*
X100809523Y-63571429D01*
X100809523Y-63761905D02*
X100904762Y-63666667D01*
X101095238Y-63571429D01*
X101380952Y-63571429D01*
X101571428Y-63666667D01*
X101666666Y-63857143D01*
X101666666Y-64904762D01*
X101666666Y-63857143D02*
X101761904Y-63666667D01*
X101952381Y-63571429D01*
X102238095Y-63571429D01*
X102428571Y-63666667D01*
X102523809Y-63857143D01*
X102523809Y-64904762D01*
X103476190Y-64904762D02*
X103476190Y-62904762D01*
X103476190Y-63857143D02*
X104619048Y-63857143D01*
X104619048Y-64904762D02*
X104619048Y-62904762D01*
X108142858Y-64904762D02*
X107000000Y-64904762D01*
X107571429Y-64904762D02*
X107571429Y-62904762D01*
X107380953Y-63190476D01*
X107190477Y-63380952D01*
X107000000Y-63476190D01*
X109285715Y-63761905D02*
X109095239Y-63666667D01*
X109000000Y-63571429D01*
X108904762Y-63380952D01*
X108904762Y-63285714D01*
X109000000Y-63095238D01*
X109095239Y-63000000D01*
X109285715Y-62904762D01*
X109666667Y-62904762D01*
X109857143Y-63000000D01*
X109952381Y-63095238D01*
X110047620Y-63285714D01*
X110047620Y-63380952D01*
X109952381Y-63571429D01*
X109857143Y-63666667D01*
X109666667Y-63761905D01*
X109285715Y-63761905D01*
X109095239Y-63857143D01*
X109000000Y-63952381D01*
X108904762Y-64142857D01*
X108904762Y-64523810D01*
X109000000Y-64714286D01*
X109095239Y-64809524D01*
X109285715Y-64904762D01*
X109666667Y-64904762D01*
X109857143Y-64809524D01*
X109952381Y-64714286D01*
X110047620Y-64523810D01*
X110047620Y-64142857D01*
X109952381Y-63952381D01*
X109857143Y-63857143D01*
X109666667Y-63761905D01*
X110809524Y-64333333D02*
X111761905Y-64333333D01*
X110619048Y-64904762D02*
X111285715Y-62904762D01*
X111952382Y-64904762D01*
X112428572Y-62904762D02*
X112904763Y-64904762D01*
X113285715Y-63476190D01*
X113666668Y-64904762D01*
X114142858Y-62904762D01*
X115952382Y-63000000D02*
X115761905Y-62904762D01*
X115476191Y-62904762D01*
X115190477Y-63000000D01*
X115000001Y-63190476D01*
X114904762Y-63380952D01*
X114809524Y-63761905D01*
X114809524Y-64047619D01*
X114904762Y-64428571D01*
X115000001Y-64619048D01*
X115190477Y-64809524D01*
X115476191Y-64904762D01*
X115666667Y-64904762D01*
X115952382Y-64809524D01*
X116047620Y-64714286D01*
X116047620Y-64047619D01*
X115666667Y-64047619D01*
D16*
X216357143Y-56500000D02*
X214928571Y-57500000D01*
X216357143Y-58214285D02*
X213357143Y-58214285D01*
X213357143Y-57071428D01*
X213500000Y-56785714D01*
X213642857Y-56642857D01*
X213928571Y-56500000D01*
X214357143Y-56500000D01*
X214642857Y-56642857D01*
X214785714Y-56785714D01*
X214928571Y-57071428D01*
X214928571Y-58214285D01*
X213642857Y-55357142D02*
X213500000Y-55214285D01*
X213357143Y-54928571D01*
X213357143Y-54214285D01*
X213500000Y-53928571D01*
X213642857Y-53785714D01*
X213928571Y-53642857D01*
X214214286Y-53642857D01*
X214642857Y-53785714D01*
X216357143Y-55500000D01*
X216357143Y-53642857D01*
D12*
X221761905Y-57190476D02*
X221666667Y-57380952D01*
X221571429Y-57476191D01*
X221380952Y-57571429D01*
X221285714Y-57571429D01*
X221095238Y-57476191D01*
X221000000Y-57380952D01*
X220904762Y-57190476D01*
X220904762Y-56809524D01*
X221000000Y-56619048D01*
X221095238Y-56523810D01*
X221285714Y-56428571D01*
X221380952Y-56428571D01*
X221571429Y-56523810D01*
X221666667Y-56619048D01*
X221761905Y-56809524D01*
X221761905Y-57190476D01*
X221857143Y-57380952D01*
X221952381Y-57476191D01*
X222142857Y-57571429D01*
X222523810Y-57571429D01*
X222714286Y-57476191D01*
X222809524Y-57380952D01*
X222904762Y-57190476D01*
X222904762Y-56809524D01*
X222809524Y-56619048D01*
X222714286Y-56523810D01*
X222523810Y-56428571D01*
X222142857Y-56428571D01*
X221952381Y-56523810D01*
X221857143Y-56619048D01*
X221761905Y-56809524D01*
X222904762Y-54428571D02*
X221952381Y-55095238D01*
X222904762Y-55571429D02*
X220904762Y-55571429D01*
X220904762Y-54809524D01*
X221000000Y-54619048D01*
X221095238Y-54523809D01*
X221285714Y-54428571D01*
X221571429Y-54428571D01*
X221761905Y-54523809D01*
X221857143Y-54619048D01*
X221952381Y-54809524D01*
X221952381Y-55571429D01*
D16*
X194357143Y-56500000D02*
X192928571Y-57500000D01*
X194357143Y-58214285D02*
X191357143Y-58214285D01*
X191357143Y-57071428D01*
X191500000Y-56785714D01*
X191642857Y-56642857D01*
X191928571Y-56500000D01*
X192357143Y-56500000D01*
X192642857Y-56642857D01*
X192785714Y-56785714D01*
X192928571Y-57071428D01*
X192928571Y-58214285D01*
X194357143Y-53642857D02*
X194357143Y-55357142D01*
X194357143Y-54500000D02*
X191357143Y-54500000D01*
X191785714Y-54785714D01*
X192071429Y-55071428D01*
X192214286Y-55357142D01*
D12*
X200904762Y-57380952D02*
X200904762Y-58523810D01*
X200904762Y-57952381D02*
X198904762Y-57952381D01*
X199190476Y-58142857D01*
X199380952Y-58333333D01*
X199476190Y-58523810D01*
X198904762Y-56142857D02*
X198904762Y-55952381D01*
X199000000Y-55761905D01*
X199095238Y-55666667D01*
X199285714Y-55571429D01*
X199666667Y-55476190D01*
X200142857Y-55476190D01*
X200523810Y-55571429D01*
X200714286Y-55666667D01*
X200809524Y-55761905D01*
X200904762Y-55952381D01*
X200904762Y-56142857D01*
X200809524Y-56333333D01*
X200714286Y-56428571D01*
X200523810Y-56523810D01*
X200142857Y-56619048D01*
X199666667Y-56619048D01*
X199285714Y-56523810D01*
X199095238Y-56428571D01*
X199000000Y-56333333D01*
X198904762Y-56142857D01*
X200904762Y-53476190D02*
X199952381Y-54142857D01*
X200904762Y-54619048D02*
X198904762Y-54619048D01*
X198904762Y-53857143D01*
X199000000Y-53666667D01*
X199095238Y-53571428D01*
X199285714Y-53476190D01*
X199571429Y-53476190D01*
X199761905Y-53571428D01*
X199857143Y-53666667D01*
X199952381Y-53857143D01*
X199952381Y-54619048D01*
D13*
X108209524Y-129666666D02*
X108209524Y-131571428D01*
X104209524Y-131571428D01*
X104209524Y-128714285D02*
X104209524Y-126238095D01*
X105733333Y-127571428D01*
X105733333Y-127000000D01*
X105923810Y-126619047D01*
X106114286Y-126428571D01*
X106495238Y-126238095D01*
X107447619Y-126238095D01*
X107828571Y-126428571D01*
X108019048Y-126619047D01*
X108209524Y-127000000D01*
X108209524Y-128142857D01*
X108019048Y-128523809D01*
X107828571Y-128714285D01*
D12*
X119404762Y-139023810D02*
X119404762Y-138833334D01*
X119500000Y-138642858D01*
X119595238Y-138547620D01*
X119785714Y-138452382D01*
X120166667Y-138357143D01*
X120642857Y-138357143D01*
X121023810Y-138452382D01*
X121214286Y-138547620D01*
X121309524Y-138642858D01*
X121404762Y-138833334D01*
X121404762Y-139023810D01*
X121309524Y-139214286D01*
X121214286Y-139309524D01*
X121023810Y-139404763D01*
X120642857Y-139500001D01*
X120166667Y-139500001D01*
X119785714Y-139404763D01*
X119595238Y-139309524D01*
X119500000Y-139214286D01*
X119404762Y-139023810D01*
X121214286Y-137500001D02*
X121309524Y-137404762D01*
X121404762Y-137500001D01*
X121309524Y-137595239D01*
X121214286Y-137500001D01*
X121404762Y-137500001D01*
X119404762Y-136738096D02*
X119404762Y-135500000D01*
X120166667Y-136166667D01*
X120166667Y-135880953D01*
X120261905Y-135690477D01*
X120357143Y-135595239D01*
X120547619Y-135500000D01*
X121023810Y-135500000D01*
X121214286Y-135595239D01*
X121309524Y-135690477D01*
X121404762Y-135880953D01*
X121404762Y-136452381D01*
X121309524Y-136642858D01*
X121214286Y-136738096D01*
X119404762Y-133690477D02*
X119404762Y-134642858D01*
X120357143Y-134738096D01*
X120261905Y-134642858D01*
X120166667Y-134452381D01*
X120166667Y-133976191D01*
X120261905Y-133785715D01*
X120357143Y-133690477D01*
X120547619Y-133595238D01*
X121023810Y-133595238D01*
X121214286Y-133690477D01*
X121309524Y-133785715D01*
X121404762Y-133976191D01*
X121404762Y-134452381D01*
X121309524Y-134642858D01*
X121214286Y-134738096D01*
X121404762Y-132738096D02*
X120071429Y-132738096D01*
X120261905Y-132738096D02*
X120166667Y-132642857D01*
X120071429Y-132452381D01*
X120071429Y-132166667D01*
X120166667Y-131976191D01*
X120357143Y-131880953D01*
X121404762Y-131880953D01*
X120357143Y-131880953D02*
X120166667Y-131785715D01*
X120071429Y-131595238D01*
X120071429Y-131309524D01*
X120166667Y-131119048D01*
X120357143Y-131023810D01*
X121404762Y-131023810D01*
X121404762Y-130071429D02*
X119404762Y-130071429D01*
X120357143Y-130071429D02*
X120357143Y-128928571D01*
X121404762Y-128928571D02*
X119404762Y-128928571D01*
X121404762Y-125404761D02*
X121404762Y-126547619D01*
X121404762Y-125976190D02*
X119404762Y-125976190D01*
X119690476Y-126166666D01*
X119880952Y-126357142D01*
X119976190Y-126547619D01*
X120261905Y-124261904D02*
X120166667Y-124452380D01*
X120071429Y-124547619D01*
X119880952Y-124642857D01*
X119785714Y-124642857D01*
X119595238Y-124547619D01*
X119500000Y-124452380D01*
X119404762Y-124261904D01*
X119404762Y-123880952D01*
X119500000Y-123690476D01*
X119595238Y-123595238D01*
X119785714Y-123499999D01*
X119880952Y-123499999D01*
X120071429Y-123595238D01*
X120166667Y-123690476D01*
X120261905Y-123880952D01*
X120261905Y-124261904D01*
X120357143Y-124452380D01*
X120452381Y-124547619D01*
X120642857Y-124642857D01*
X121023810Y-124642857D01*
X121214286Y-124547619D01*
X121309524Y-124452380D01*
X121404762Y-124261904D01*
X121404762Y-123880952D01*
X121309524Y-123690476D01*
X121214286Y-123595238D01*
X121023810Y-123499999D01*
X120642857Y-123499999D01*
X120452381Y-123595238D01*
X120357143Y-123690476D01*
X120261905Y-123880952D01*
X120833333Y-122738095D02*
X120833333Y-121785714D01*
X121404762Y-122928571D02*
X119404762Y-122261904D01*
X121404762Y-121595237D01*
X119404762Y-121119047D02*
X121404762Y-120642856D01*
X119976190Y-120261904D01*
X121404762Y-119880951D01*
X119404762Y-119404761D01*
X119500000Y-117595237D02*
X119404762Y-117785714D01*
X119404762Y-118071428D01*
X119500000Y-118357142D01*
X119690476Y-118547618D01*
X119880952Y-118642857D01*
X120261905Y-118738095D01*
X120547619Y-118738095D01*
X120928571Y-118642857D01*
X121119048Y-118547618D01*
X121309524Y-118357142D01*
X121404762Y-118071428D01*
X121404762Y-117880952D01*
X121309524Y-117595237D01*
X121214286Y-117499999D01*
X120547619Y-117499999D01*
X120547619Y-117880952D01*
D13*
X205428571Y-113666667D02*
X205619048Y-113857143D01*
X205809524Y-114428572D01*
X205809524Y-114809524D01*
X205619048Y-115380952D01*
X205238095Y-115761905D01*
X204857143Y-115952381D01*
X204095238Y-116142857D01*
X203523810Y-116142857D01*
X202761905Y-115952381D01*
X202380952Y-115761905D01*
X202000000Y-115380952D01*
X201809524Y-114809524D01*
X201809524Y-114428572D01*
X202000000Y-113857143D01*
X202190476Y-113666667D01*
X202190476Y-112142857D02*
X202000000Y-111952381D01*
X201809524Y-111571429D01*
X201809524Y-110619048D01*
X202000000Y-110238095D01*
X202190476Y-110047619D01*
X202571429Y-109857143D01*
X202952381Y-109857143D01*
X203523810Y-110047619D01*
X205809524Y-112333333D01*
X205809524Y-109857143D01*
D12*
X224571429Y-115809524D02*
X225904762Y-115809524D01*
X223809524Y-116285714D02*
X225238095Y-116761905D01*
X225238095Y-115523809D01*
X225714286Y-114761905D02*
X225809524Y-114666666D01*
X225904762Y-114761905D01*
X225809524Y-114857143D01*
X225714286Y-114761905D01*
X225904762Y-114761905D01*
X223904762Y-114000000D02*
X223904762Y-112666666D01*
X225904762Y-113523809D01*
X224571429Y-111047619D02*
X225904762Y-111047619D01*
X224571429Y-111904762D02*
X225619048Y-111904762D01*
X225809524Y-111809523D01*
X225904762Y-111619047D01*
X225904762Y-111333333D01*
X225809524Y-111142857D01*
X225714286Y-111047619D01*
X224857143Y-109428571D02*
X224857143Y-110095238D01*
X225904762Y-110095238D02*
X223904762Y-110095238D01*
X223904762Y-109142857D01*
D13*
X64428571Y-113666667D02*
X64619048Y-113857143D01*
X64809524Y-114428572D01*
X64809524Y-114809524D01*
X64619048Y-115380952D01*
X64238095Y-115761905D01*
X63857143Y-115952381D01*
X63095238Y-116142857D01*
X62523810Y-116142857D01*
X61761905Y-115952381D01*
X61380952Y-115761905D01*
X61000000Y-115380952D01*
X60809524Y-114809524D01*
X60809524Y-114428572D01*
X61000000Y-113857143D01*
X61190476Y-113666667D01*
X60809524Y-112333333D02*
X60809524Y-109857143D01*
X62333333Y-111190476D01*
X62333333Y-110619048D01*
X62523810Y-110238095D01*
X62714286Y-110047619D01*
X63095238Y-109857143D01*
X64047619Y-109857143D01*
X64428571Y-110047619D01*
X64619048Y-110238095D01*
X64809524Y-110619048D01*
X64809524Y-111761905D01*
X64619048Y-112142857D01*
X64428571Y-112333333D01*
D12*
X83571429Y-115809524D02*
X84904762Y-115809524D01*
X82809524Y-116285714D02*
X84238095Y-116761905D01*
X84238095Y-115523809D01*
X84714286Y-114761905D02*
X84809524Y-114666666D01*
X84904762Y-114761905D01*
X84809524Y-114857143D01*
X84714286Y-114761905D01*
X84904762Y-114761905D01*
X82904762Y-114000000D02*
X82904762Y-112666666D01*
X84904762Y-113523809D01*
X83571429Y-111047619D02*
X84904762Y-111047619D01*
X83571429Y-111904762D02*
X84619048Y-111904762D01*
X84809524Y-111809523D01*
X84904762Y-111619047D01*
X84904762Y-111333333D01*
X84809524Y-111142857D01*
X84714286Y-111047619D01*
X83857143Y-109428571D02*
X83857143Y-110095238D01*
X84904762Y-110095238D02*
X82904762Y-110095238D01*
X82904762Y-109142857D01*
M02*
