G04 #@! TF.FileFunction,Soldermask,Bot*
%FSLAX46Y46*%
G04 Gerber Fmt 4.6, Leading zero omitted, Abs format (unit mm)*
G04 Created by KiCad (PCBNEW 4.0.0-stable) date Thursday, December 17, 2015 'AMt' 12:16:44 AM*
%MOMM*%
G01*
G04 APERTURE LIST*
%ADD10C,0.100000*%
%ADD11C,5.900000*%
%ADD12C,3.400000*%
%ADD13C,2.900000*%
%ADD14C,2.400000*%
%ADD15R,3.400000X3.400000*%
%ADD16C,3.700000*%
%ADD17C,4.400000*%
G04 APERTURE END LIST*
D10*
D11*
X179000000Y-91500000D03*
D12*
X154000000Y-149000000D03*
X154000000Y-97000000D03*
D13*
X154000000Y-142000000D03*
X154000000Y-138000000D03*
D14*
X154000000Y-134000000D03*
D13*
X154000000Y-104000000D03*
D14*
X154000000Y-112000000D03*
D13*
X154000000Y-108000000D03*
D15*
X146000000Y-36000000D03*
D12*
X146000000Y-41080000D03*
X146000000Y-46160000D03*
X146000000Y-51240000D03*
D15*
X54000000Y-36000000D03*
D12*
X54000000Y-41080000D03*
X54000000Y-46160000D03*
X54000000Y-51240000D03*
X54000000Y-56320000D03*
X54000000Y-61400000D03*
D16*
X87000000Y-34000000D03*
D11*
X87000000Y-91500000D03*
D16*
X179000000Y-34000000D03*
X141000000Y-149000000D03*
X223000000Y-149000000D03*
X131000000Y-34000000D03*
X49000000Y-149000000D03*
X223000000Y-34000000D03*
X131000000Y-149000000D03*
D17*
X154000000Y-75000000D03*
X148000000Y-57000000D03*
X148000000Y-75000000D03*
D13*
X148000000Y-81000000D03*
X154000000Y-81000000D03*
D17*
X154000000Y-57000000D03*
X114000000Y-72000000D03*
X128000000Y-86000000D03*
X84000000Y-86000000D03*
X98000000Y-72000000D03*
X106000000Y-33000000D03*
D12*
X103000000Y-74000000D03*
X110000000Y-95000000D03*
D17*
X106000000Y-52000000D03*
D12*
X215000000Y-36000000D03*
X215000000Y-76000000D03*
X193000000Y-76000000D03*
X193000000Y-36000000D03*
D17*
X115000000Y-125000000D03*
X115000000Y-132000000D03*
D12*
X93000000Y-118000000D03*
X93000000Y-110000000D03*
D17*
X98000000Y-125000000D03*
X98000000Y-132000000D03*
X204000000Y-149000000D03*
X204000000Y-77000000D03*
D13*
X204000000Y-133000000D03*
D12*
X204000000Y-141000000D03*
D13*
X204000000Y-93000000D03*
D12*
X204000000Y-85000000D03*
D13*
X204000000Y-123000000D03*
X204000000Y-103000000D03*
D17*
X63000000Y-149000000D03*
X63000000Y-77000000D03*
D13*
X63000000Y-133000000D03*
D12*
X63000000Y-141000000D03*
D13*
X63000000Y-93000000D03*
D12*
X63000000Y-85000000D03*
D13*
X63000000Y-123000000D03*
X63000000Y-103000000D03*
M02*
